<?xml version="1.0" encoding="UTF-8"?>
<!DOCTYPE svg PUBLIC "-//W3C//DTD SVG 1.1//EN" "http://www.w3.org/Graphics/SVG/1.1/DTD/svg11.dtd">
<!-- Creator: CorelDRAW 2018 (64-Bit) -->
<svg xmlns="http://www.w3.org/2000/svg" xml:space="preserve" width="126.104mm" height="57.4234mm" version="1.1" style="shape-rendering:geometricPrecision; text-rendering:geometricPrecision; image-rendering:optimizeQuality; fill-rule:evenodd; clip-rule:evenodd"
viewBox="0 0 13342.65 6075.8"
 xmlns:xlink="http://www.w3.org/1999/xlink">
 <defs>
  <style type="text/css">
   <![CDATA[
    .fil0 {fill:#fff}
   ]]>
  </style>
 </defs>
 <g id="Слой_x0020_1">
  <metadata id="CorelCorpID_0Corel-Layer"/>
  <path class="fil0" d="M202.56 2013.35c282.18,-8.46 576.68,-0.71 860.22,-0.71l2780.11 0 0 -56.55 -3591.19 0c-136.95,0.05 -94.01,-12.59 -190.16,-59.84 -10.76,-221.03 -15.46,-515.93 57.08,-707.09 71.85,-189.34 201.55,-333.12 338.87,-424.92 183.52,-122.67 349.28,-149.86 613.23,-149.86 251.8,0 503.61,0.19 755.4,-0.03 231.87,-0.19 388.16,116.64 578.98,184.22 210.2,74.45 471.62,51.1 709.21,51.07l728.59 2.56 0 -56.53 -204.13 -0.86c-287.48,-1.13 -577.74,-2.29 -866.39,-2.29 -155.52,0 -250.72,-6.93 -381.59,-59.48 -355.79,-142.89 -304.11,-175.26 -691.88,-175.26 -145.78,0 -291.55,0 -437.35,0 -295.56,0 -525.37,-18.06 -760.94,114.31 -297.11,166.94 -489.14,461.13 -496.54,817.18 -2.73,131.8 -7.59,302.23 1.43,431.42 27.18,26.23 113.96,67.48 130.26,90.52 17.87,25.23 9.26,158.14 9.44,202.04 3.05,723.06 17.69,1450.93 17.74,2171.93 0,44.8 8.71,185.35 -8.89,212.71 -21.46,33.37 -95.43,53.73 -130.35,84.34 -36.5,32 -19.91,139.38 -19.91,196.21 0,71.6 -0.14,143.2 -0.03,214.81 0.8,485.39 324.34,882.51 792.12,958.55 131.45,21.36 289.97,13.06 425.89,13.06 190.09,0 694.97,19.4 847.03,-28.85 269.54,-85.52 348.06,-189.43 679.7,-186.84 145.71,1.14 291.64,-0.41 437.35,0.67 268.16,2 509.16,1.67 784.45,0.88l0 -54.44 -856.02 -3.12c-594.93,0.12 -490.58,-36.15 -984.07,161.13 -125.74,50.27 -174.09,54.06 -320.03,54.06 -254.47,-0.01 -508.91,-0.01 -763.38,0 -273.45,0 -407.09,-31.91 -598.93,-156.73 -246.08,-160.1 -387.14,-449.48 -387.57,-758.35 -0.14,-102.43 -10.16,-278.28 2.87,-372.1 128.21,-69.35 102.36,-73.46 188.44,-73.02 87.43,0.44 174.99,0.03 262.43,0.03l3328.86 0 0 -56.92 -3621.25 -0.41c-6.79,-835.32 -20.29,-1696.6 -20.45,-2528.72l1.32 -48.73 0.05 -0.01zm3484.55 1592.68l3.47 -103.19c-169.28,-1.45 -155.07,-51.59 -154.45,-209.34l150.64 0 3.91 -103.07 -153.67 -0.5 -1.06 -131.43 -104.24 0.87c0.08,91.31 -10.4,324.79 6.66,394.87 31.91,131.21 138.56,151.89 248.75,151.8l-0.01 -0.01zm-689.6 0.41l100.82 0.52c17.2,-119.85 -45.8,-317.98 105.42,-321.39 62.1,-1.4 104.71,44.02 108.51,103.71 4.29,67.52 -6.5,152.93 2.31,217.2l100.16 0.32c6.48,-67.59 8.02,-245.32 -15.27,-298.2 -73.31,-166.52 -308.63,-168.86 -384.68,-4.32 -26.18,56.66 -24.81,231.54 -17.25,302.16l-0.01 -0.01zm-265.1 -315.41c65.73,-21.13 122.56,24.73 137.96,72.27 22.41,69.16 -23.14,128.98 -74.54,144.14 -140.71,41.5 -217.49,-166.88 -63.4,-216.41l-0.02 0zm2.42 -107.06c-112.65,14.92 -207.29,113.29 -189.45,245.03 37.9,279.85 473.96,228.6 432.45,-62.81 -15.22,-106.87 -118.02,-198.79 -243,-182.23l-0.01 0.01zm1062.49 247.04c-9.67,-54.85 8.76,-101.44 45.56,-126.07l0 -112.35c-82.12,23.5 -151.73,90.58 -153.77,202.06 -1.86,101.81 65.6,184.22 153.77,211.68l0 -213.43 -5.46 5.46c-15.9,16.08 -19.33,23.84 -40.09,32.63l-0.01 0.02zm-2002.9 175.67l100.05 0.15c7.47,-64.91 -1.36,-145.66 1.68,-212.4 6.61,-144.73 206.64,-145.69 211.42,0.08 2.25,68.59 -4.07,142.7 0.75,210.52l103.33 1.67c4.15,-69.77 -2.86,-143.61 0.17,-212.23 6.48,-146.48 207.1,-143.46 211.35,-0.03 1.96,65.97 -5.84,148.8 1.49,211.96l100.89 0.56c7.19,-53.44 2.71,-154.92 1.96,-212.34 -0.93,-69.5 -29.92,-123.57 -64.71,-155.6 -59.97,-55.22 -159.2,-77.5 -241.43,-34.12 -30.44,16.05 -43.35,34.28 -66.86,46.15 -104.73,-133.13 -358.77,-65.99 -361.75,137.65 -0.9,62.06 -4.93,159.21 1.66,217.99l0 -0.03z"/>
  <path class="fil0" d="M12290 782.14c116.36,4.27 219.03,96.49 262.69,164.64 71.25,111.29 57.59,215.84 57.59,362.09l0 3405.12c0,212.06 35.9,494.82 -266.43,584.11 -116.02,34.29 -676.24,14.99 -839.05,14.99 -1419.88,0 -2839.77,0 -4259.65,0 -149.31,0 -3344.95,11.84 -3401.73,-7.1l-2.56 -2256.06 -7.63 -2269.51 8456.74 1.74 0.03 -0.02zm-4371.11 2182.58l181.53 -5.75c9.44,-30.17 10.49,-95.47 -0.98,-125.12l-181.13 -4.86 0.68 -148.4 -122.97 0.96c0.13,99.64 -12.03,391.92 8.03,468.33 37.57,143.09 159.29,184.55 296.32,175.04l-2.78 -120.29c-193.19,-9.81 -176.63,-42.67 -178.72,-239.91l0.02 -0.01zm1337.5 361.06c48.36,0.06 116.28,4.14 162.09,0.68 35.54,-2.71 28.87,-27.57 48.4,-112.82 15.73,-68.56 51.93,-192.76 57.23,-257.29l-310.89 -0.47 -24.6 108.53 118.24 1.08c-1.07,62.16 -58.31,213.81 -50.46,260.29l0 0.01zm-1853.53 -0.98c11.99,-148.87 -48.44,-377.53 127.12,-376.49 176.34,1.05 111.37,232.76 126.12,378.42l118.51 0.11c13.25,-76.38 8.41,-296.87 -20.46,-358.16 -97.14,-206.11 -378.56,-176.35 -454.02,7.98 -26.95,65.8 -24.33,266.87 -17.96,350.04l120.68 -1.9 0 0.01zm-425.13 -373.19c78.61,-17.32 145.04,37.12 158.76,102.09 16.61,78.81 -38.42,144.3 -99.02,157.99 -181.24,40.9 -233.43,-221.81 -59.74,-260.08zm-230.19 152.64c26.39,330.99 544.72,297.51 513.87,-46.5 -29.52,-329.01 -541.04,-294.61 -513.87,46.5zm1479.33 14.26c-15.96,-106.01 58.62,-193.87 162.01,-166.22l-2.25 13.66c-0.33,0.62 -8.31,10.67 -8.5,10.88 -6.54,7.47 -13.52,13.82 -20.79,20.89 -15.43,15.01 -27.09,24.6 -42.22,39.59 -21.85,21.64 -61.96,71 -88.26,81.22l0.01 -0.01zm94.73 92.85c17.48,-28.93 233.54,-233.04 254.53,-263.89 -98.11,-197.34 -478.91,-150.55 -476.71,136.35 2.12,277.22 360.73,331.46 482.3,134.73l-83.74 -81.4c-52.86,23.06 -54.09,93.84 -176.38,74.2l0 0zm1893.91 -330.83c6.4,-46.04 41.28,-152.92 38.07,-188.74l-615.52 0.34 -43.23 188.71 213.59 0.95 -101.13 447.08 188.87 0.12 104.22 -447.73 215.15 -0.72 -0.01 0zm-4235.46 445.6c17.73,-138.77 -51.99,-374.76 125.19,-377.73 176.57,-2.96 119.01,233.74 127.65,378.06l121.02 -0.8c7.82,-76.89 -1.54,-169.79 1.46,-248.96 2.76,-72.9 51.63,-128.03 124.73,-128.38 177.04,-0.87 110.04,229.7 126.09,378.36l118.5 0.4c9.19,-55.49 4.19,-194.5 2.88,-257.02 -3.18,-151.98 -126.46,-253.49 -266.42,-243.36 -97.49,7.06 -126.92,54.68 -173.2,80.86 -101.39,-143.96 -426.18,-95.59 -427.69,169.17 -0.39,71.32 -6.09,183.11 2.13,250.33l117.63 -0.95 0.04 0.02zm3569.51 -445.15c7.68,-42.49 41.56,-155.39 37.28,-189.2 -115.38,0.07 -337.84,-12.38 -439.72,5.76 -259.54,46.17 -419.85,352.34 -296.5,524.39 77.39,107.94 178.53,103.75 342.68,103.75 16.78,-4.71 17.98,-25.55 21.71,-42.54 3.41,-15.36 7.62,-33.51 11.46,-50.84 6.97,-31.47 15.3,-63.37 21.14,-95.09 -82.8,-2.68 -181.18,17.75 -224.28,-40.22 -45.21,-60.79 -2.19,-140.28 40.12,-177.02 57.13,-49.58 136.12,-38.98 225.27,-38.98 86.94,0 173.88,0 260.84,0l0.01 -0.01zm907.37 1.11c33.1,-2.24 66.52,-1.05 99.73,-1.11 16.59,-0.03 39.26,-1.44 54.97,-0.57 64.68,3.6 46.27,71.09 -13.58,75.81 -36.06,2.85 -75.77,-1.87 -113.4,1.26 -33.13,111.74 -74.91,236.21 5.97,315.1 73.27,71.48 233.81,62.63 343.99,54.12l40.67 -187.31c-43.71,0 -186.06,7.5 -216.14,-7.85l18.79 -15.13c101.01,-57.82 188.88,-147.26 167.71,-281.67 -29.62,-188.01 -266.04,-141.84 -466.25,-142.92 -88.54,-0.49 -62.25,-41.87 -125.53,238.99 -16.21,71.97 -86.32,350.46 -88.52,398.49l187.14 -0.62 104.46 -446.57 -0.02 -0.01zm727.72 2207.27c-21.9,14.53 -15.7,12.52 -51.92,12.52l-5640.36 0c-56.85,0 -63.47,-5.22 -63.47,-64.93l0.01 -4002.01c0.03,-53.23 10.81,-61.92 63.47,-61.92l5645.26 0c79.24,0 59.07,41.69 59.07,189.11l0.01 3806.35c0.33,146.96 -10.1,101.41 -12.06,120.9l-0.01 -0.01zm-5822.87 -4054.44l0 4002.01c0,92.78 36.73,131.86 130.59,131.86l5640.36 0c174.35,0 131,-154.04 131,-435.19l0.19 -3669.36c0.56,-106.99 -21.19,-158.34 -131.19,-158.34l-5645.26 0c-87.04,0 -125.7,36.77 -125.7,129.03l0.01 0zm1188.16 4968.68c-564.69,-0.35 -1129.39,-0.01 -1694.06,-0.01 -361.22,0 -706.56,41.66 -950.42,-310.53 -47.26,-68.28 -122.36,-201.29 -117.29,-312.83 460.21,-11.91 938.29,-0.04 1400.64,-0.04l7021.09 0.11c221.21,-0.58 368.36,-109.67 431.99,-263.76 59.97,-145.24 35.52,-489.49 35.52,-666.72l0 -2808.24c0,-163.66 21.57,-531.92 -32.04,-660.12 -67.85,-162.32 -202.38,-272.35 -435.48,-272.97 -2572.06,-6.96 -5152.57,0.11 -7726.12,0.11 -213.59,0 -494.72,15.71 -699.85,-1.49 1.24,-199.88 157.11,-385.02 254.5,-469.41 150.03,-130.07 326.2,-166.43 582.45,-166.4l1860.96 -0.61c90.72,0.53 141.87,82.43 218.9,157.94 91.94,90.12 107.43,89.15 280.06,89.23 124.06,0.06 248.09,0.78 372.11,1.67 493.49,3.48 985.09,9.88 1478.64,11.26 169.93,0.49 168.9,-16.94 343.03,-205.45 45.89,-49.68 42.67,-55.13 136.73,-54.17 732.74,7.27 1497.45,0.15 2232.72,0.15 578.28,0 802.98,13.83 1190.57,302.26 234.91,174.8 483.43,517.67 531.29,957.74 21.92,201.65 7.63,2682.52 7.63,2952.23 0,250.62 12.19,452.86 -51.05,688.66 -93.66,349.06 -341.12,663.9 -648.79,839.28 -438.55,249.96 -779.91,192.19 -1284.24,192.19l-2046.32 -0.11c-98.61,-11.86 -180.3,-217.51 -332.61,-218.98l-2037.48 -13.2c-126.49,-0.62 -123.64,16.94 -230.03,141.29 -25.14,29.38 -51.17,77.99 -93.03,90.98l-0.01 -0.03zm-2837.44 -661.68c10.23,290.77 213.85,522.18 391.21,622.73 258.27,146.43 571.44,106.06 899.04,106.06l1528.1 0.35c58.49,0.34 59.35,2.45 92.64,-30.92 46.94,-47.04 142.66,-183.25 175.9,-195.97 59.07,-22.61 1789.2,7.33 2012.55,7.76 121.32,0.23 128.71,-14.56 200.65,51.17 201.78,184.34 144.59,167.64 337.91,167.61l2271.83 0c341.86,0 582.39,0.69 866.64,-138.45 250.14,-122.45 422.05,-269.11 561.05,-456.98 136.45,-184.41 252.22,-432.79 282.37,-722.92 16.61,-159.88 8.02,-345.34 8.02,-508.02l0 -2524.48c0,-351.99 -3.56,-584.58 -141.16,-871.17 -194.83,-405.79 -603.04,-779.37 -1190.01,-837.37 -158.07,-15.61 -343.43,-7.14 -504.47,-7.14l-2027 0c-267.42,0 -259.35,-36.85 -395.4,116.97 -137.41,155.36 -93.06,142.67 -368.41,142.5l-1498.22 -12.07c-479.17,-3.17 -324.93,49.84 -582.09,-181.12 -78.02,-70.08 -42.1,-66.8 -181.7,-66.29 -231.05,0.8 -1851.11,-12.1 -2027.16,3.99 -296.55,27.11 -510.29,211.4 -615.31,401.99 -30.05,54.51 -55.52,112.29 -74.2,180.82 -51.08,187.33 5.44,145.52 24.22,197.63 10.24,28.42 10.42,2362.17 10.93,2516.41 2.16,665.75 15.85,1340.99 6.08,2006.14l-64.07 30.79 0.02 -0.02z"/>
 </g>
</svg>
