<?xml version="1.0" encoding="UTF-8"?>
<!DOCTYPE svg PUBLIC "-//W3C//DTD SVG 1.1//EN" "http://www.w3.org/Graphics/SVG/1.1/DTD/svg11.dtd">
<!-- Creator: CorelDRAW 2018 (64-Bit) -->
<svg xmlns="http://www.w3.org/2000/svg" xml:space="preserve" width="226.443mm" height="31.947mm" version="1.1" style="shape-rendering:geometricPrecision; text-rendering:geometricPrecision; image-rendering:optimizeQuality; fill-rule:evenodd; clip-rule:evenodd"
viewBox="0 0 20554.73 2899.9"
 xmlns:xlink="http://www.w3.org/1999/xlink">
 <defs>
  <style type="text/css">
   <![CDATA[
    .fil1 {fill:#fff;fill-rule:nonzero}
    .fil0 {fill:#fff;fill-rule:nonzero}
   ]]>
  </style>
 </defs>
 <g id="Слой_x0020_1">
  <metadata id="CorelCorpID_0Corel-Layer"/>
  <g id="_1760783553200">
   <g>
    <path class="fil0" d="M5010.36 646.1c-621.35,0 -1126.9,505.54 -1126.9,1126.9l0 0.61c0,621.35 505.55,1126.29 1126.9,1126.29 621.35,0 1126.28,-504.94 1126.28,-1126.29l0 -0.61c0,-621.36 -504.93,-1126.9 -1126.28,-1126.9zm594.82 1127.51l0 0c0,328.18 -266.66,594.81 -594.82,594.81 -328.18,0 -594.81,-266.63 -594.81,-594.81l0 -0.61c0,-328.18 266.63,-594.82 594.81,-594.82 328.16,0 594.82,266.64 594.82,594.82l0 0.61z"/>
    <path class="fil0" d="M2714.17 646.33c-325.71,0 -617.58,145.31 -816.13,373.73 -198.55,-228.42 -490.42,-373.73 -816.14,-373.73 -596.61,0 -1081.89,485.29 -1081.89,1081.89l0 0.34 0 265.58 0 857.86 531.86 0 0 -857.86 0 -265.58 0 -0.34c0,-303.32 246.71,-550.03 550.03,-550.03 303.32,0 550.21,246.71 550.21,550.03l0 265.93 0 857.86 531.85 0 0 -857.86 0 -265.93c0,-303.32 246.88,-550.03 550.21,-550.03 303.32,0 550.03,246.71 550.03,550.03l0 0.34 0 265.58 0 857.86 531.86 0 0 -857.86 0 -265.58 0 -0.34c0,-596.61 -485.29,-1081.89 -1081.89,-1081.89z"/>
    <path class="fil0" d="M7307.72 646.33c-597.47,0 -1083.45,485.98 -1083.45,1083.28l0 0.34 0 265.58 0 856.47 531.85 0 0 -856.47 0 -265.58 0 -0.34c0,-304.02 247.41,-551.42 551.59,-551.42 304.2,0 551.59,247.4 551.59,551.42l0 0.34 0 265.58 0 856.47 531.85 0 0 -856.47 0 -265.58 0 -0.34c0,-597.31 -485.97,-1083.28 -1083.45,-1083.28z"/>
    <path class="fil0" d="M9010.59 1219.2l0 566.47c0,313.7 217.77,531.48 531.48,531.48l266.03 0 0 532.06 -266.03 0c-513.98,0 -919.98,-328.16 -1031.59,-797.51 -21.12,-83.24 -31.97,-173.73 -31.97,-266.03l0 -1785.67 532.08 0 0 687.73 797.51 0 0 531.47 -797.51 0z"/>
    <path class="fil0" d="M11919.53 2384.71l-22.92 -21.11 -354.73 -356.53 -179.17 180.98 -3.62 3.62 -1.82 1.82c-69.37,68.77 -150.81,117.03 -237.68,143.57 -118.84,41.03 -246.73,41.03 -367.37,1.82l184.59 -184.6 374.02 -378.24 191.85 -191.24 397.55 -399.36c-46.46,-76.01 -101.36,-147.21 -167.11,-211.14 -65.15,-65.76 -134.52,-120.65 -211.14,-164.69l-1.81 0c-356.54,-220.19 -810.78,-220.19 -1169.13,0 -76.01,44.03 -147.2,98.93 -212.96,164.69 -63.95,63.94 -120.65,135.13 -166.49,211.14 -106.77,175.55 -163.49,376.43 -163.49,587.58 0,212.95 58.52,415.05 167.11,590.6 45.85,74.81 100.76,143.57 162.87,205.72 67.58,67.55 140.57,124.26 218.39,167.09 177.36,109.8 379.46,162.88 580.33,162.88 200.28,0 400.57,-53.08 578.54,-162.88 77.82,-42.84 150.81,-99.54 217.77,-167.09l186.41 -184.6zm-1547.36 -420.47l0 0c-21.11,-60.33 -31.97,-126.09 -31.97,-191.24 0,-63.94 10.86,-127.89 30.16,-186.41 28.96,-86.86 76.61,-168.92 144.17,-235.87 67.57,-67.57 147.21,-115.83 232.26,-142.38 124.27,-42.23 257.59,-42.23 377.64,0l-187.62 190.03 -376.43 377.65 -188.22 188.22z"/>
   </g>
  </g>
  <polygon class="fil0" points="19254.37,50.76 19064.17,881.86 18123.95,881.86 17670.78,2864 16839.71,2864 17292.87,881.86 16352.64,881.86 16542.43,50.76 "/>
  <path class="fil0" d="M16339 50.76l-189.79 831.1 -1672.9 0c-312.99,0 -625.57,254.71 -697.1,567.67 -71.94,313.02 124.45,567.32 437.45,567.32l616.9 0 -189.79 831.05 -616.9 0c-771.12,0 -1254.88,-627.22 -1078.74,-1398.36 176.13,-771.09 947.26,-1398.77 1718.38,-1398.77l1672.48 0z"/>
  <polygon class="fil0" points="15218.91,1220.47 15218.76,1221.15 14679.46,1221.15 14571.48,1693.63 15110.57,1693.63 15036.57,2016.86 15036.99,2016.86 14847.22,2847.9 15677.45,2847.9 15941.38,1693.63 15941.44,1693.63 16049.57,1221.15 16049.41,1221.15 16049.57,1220.47 "/>
  <polygon class="fil1" points="19584.42,2239.47 19675.32,1841.42 19254.37,1841.42 19342.01,1458.44 19762.5,1458.44 19853.63,1060.34 20224.47,1060.34 20133.45,1458.44 20554.73,1458.44 20467.23,1841.42 20045.88,1841.42 19954.85,2239.47 "/>
 </g>
</svg>
