<?xml version="1.0" encoding="UTF-8"?>
<!DOCTYPE svg PUBLIC "-//W3C//DTD SVG 1.1//EN" "http://www.w3.org/Graphics/SVG/1.1/DTD/svg11.dtd">
<!-- Creator: CorelDRAW 2018 (64-Bit) -->
<svg xmlns="http://www.w3.org/2000/svg" xml:space="preserve" width="74.2416mm" height="52.1521mm" version="1.1" style="shape-rendering:geometricPrecision; text-rendering:geometricPrecision; image-rendering:optimizeQuality; fill-rule:evenodd; clip-rule:evenodd"
viewBox="0 0 12333.5 8663.85"
 xmlns:xlink="http://www.w3.org/1999/xlink">
 <defs>
  <style type="text/css">
   <![CDATA[
    .fil0 {fill:white}
   ]]>
  </style>
 </defs>
 <g id="Слой_x0020_1">
  <metadata id="CorelCorpID_0Corel-Layer"/>
  <path class="fil0" d="M317.93 2294.17c443.06,-13.29 905.46,-1.11 1350.63,-1.11l9026.67 0c126.77,-0.02 221.81,-34.5 221.86,102.62l0 3834.86c0,90.66 -17.88,111.69 -109.48,111.69l-10459.62 -1.21c-10.65,-1311.54 -31.86,-2663.84 -32.13,-3970.32l2.08 -76.52zm-221.4 -183.89c-16.91,-347.04 -24.27,-810.05 89.61,-1110.19 112.83,-297.28 316.47,-523.05 532.09,-667.16 288.13,-192.61 548.4,-235.32 962.84,-235.32 395.35,0 790.71,0.32 1186.06,-0.03 364.03,-0.32 609.45,183.14 909.04,289.24 330.03,116.87 740.51,80.24 1113.53,80.19l3570.71 12.54c423.22,-0.07 716.59,42.91 1081.38,-111.52 499.09,-211.28 397.59,-270.42 928.71,-270.42 405.37,0 701.5,-12.01 1025.12,160.71 254.42,135.78 460.52,340.71 596.34,602.62 168.12,324.16 152.14,646.4 152.14,1047.56l0 4784.21c0,440.43 30.8,690.55 -131.99,1067.81 -111.22,257.75 -348.67,491.49 -568.32,618.07 -331.62,191.1 -582.56,188.07 -1010.86,188.07 -225.67,0 -338.25,16.3 -541.54,-58.04 -146.72,-53.66 -279.44,-116.89 -428.64,-170.89 -360.96,-130.63 -696.68,-95.16 -1102.35,-96.39l-3570.71 -12.54c-934.08,0.18 -770.26,-56.77 -1545.06,252.99 -197.42,78.93 -273.38,84.87 -502.48,84.87 -399.52,-0.02 -799.04,-0.02 -1198.55,0 -429.34,0 -639.17,-50.1 -940.41,-246.08 -386.34,-251.37 -607.84,-705.74 -608.5,-1190.68 -0.23,-160.81 -15.96,-436.93 4.49,-584.25 201.28,-108.88 160.71,-115.36 295.89,-114.66 137.29,0.7 274.74,0.03 412.04,0.03l9850.67 0c386.28,0 348.05,-7.08 348.05,-475.3l0 -3285.25c0,-468.13 37.18,-466.23 -360.54,-466.23l-10250.19 0c-215.02,0.08 -147.62,-19.79 -298.56,-93.96zm-87.93 38.39c42.68,41.18 178.92,105.96 204.52,142.12 28.04,39.62 14.52,248.29 14.82,317.24 4.77,1135.28 27.76,2278.11 27.84,3410.15 0.02,70.34 13.71,291.02 -13.94,333.98 -33.69,52.4 -149.85,84.36 -204.67,132.42 -57.33,50.24 -31.27,218.84 -31.27,308.06 0,112.42 -0.23,224.85 -0.05,337.27 1.28,762.11 509.26,1385.64 1243.72,1505.01 206.4,33.54 455.27,20.5 668.69,20.5 298.45,0 1091.17,30.45 1329.89,-45.29 423.22,-134.28 546.49,-297.4 1067.23,-293.36 228.77,1.79 457.88,-0.66 686.67,1.05 1343.88,10.07 2776.32,-17.31 4095.63,13.54 202.26,4.73 383.89,67.23 550.13,134.01 606.56,243.69 461.15,197.86 1184.73,189.92 568.77,-6.23 1033.74,-283.35 1307.38,-754.46 213.99,-368.47 192.99,-699.23 192.99,-1170.64l0 -4809.18c0,-680.29 20.9,-1026.03 -506.94,-1543.5 -242.06,-237.3 -643.49,-365.74 -1005.91,-368.67 -766.86,-6.18 -568.32,-61.92 -1165.39,209.1 -533.33,242.08 -576.92,172.72 -1194.28,172.79 -915.59,0.08 -1831.63,-6.2 -2747.27,-9.78 -451.37,-1.78 -907.1,-3.59 -1360.29,-3.59 -244.17,0 -393.69,-10.88 -599.17,-93.4 -558.58,-224.35 -477.46,-275.17 -1086.3,-275.17 -228.89,0 -457.78,0 -686.68,0 -464.04,0 -824.87,-28.36 -1194.75,179.48 -466.48,262.13 -767.97,724.01 -779.58,1283.04 -4.29,206.94 -11.91,474.52 2.24,677.36z"/>
  <g id="_1821886541712">
   <path class="fil0" d="M6928.21 4793.61l61.45 -249.29c-100.06,-5.28 -237.96,24.72 -296.65,-49.97 -68.23,-86.87 0.43,-203.46 55.15,-243.43 91.2,-66.62 166.53,-48.74 293.93,-48.74 115.99,0 232.51,1.1 348.43,-0.37l55.84 -250.85c-376.84,-3.67 -743.02,-75.72 -955.41,251.47 -84.58,130.28 -130.69,310.94 -26.98,457.38 95.32,134.6 258.68,144.08 464.24,133.8z"/>
   <path class="fil0" d="M2487.21 4795.84l157.09 0.23c11.73,-101.9 -2.14,-228.71 2.64,-333.48 10.38,-227.24 324.45,-228.72 331.95,0.13 3.54,107.7 -6.41,224.05 1.18,330.54l162.24 2.62c6.51,-109.53 -4.49,-225.47 0.27,-333.22 10.15,-229.97 325.16,-225.25 331.85,-0.05 3.07,103.56 -9.17,233.62 2.34,332.8l158.4 0.86c11.3,-83.91 4.27,-243.24 3.07,-333.4 -1.46,-109.13 -46.98,-194 -101.6,-244.32 -94.14,-86.7 -249.95,-121.69 -379.07,-53.58 -47.78,25.2 -68.06,53.82 -104.98,72.45 -164.42,-209.02 -563.32,-103.61 -567.99,216.13 -1.43,97.43 -7.74,249.97 2.59,342.27z"/>
   <polygon class="fil0" points="7449.69,4201.31 7730.9,4202.29 7598.28,4796.62 7850.36,4799.44 7988.52,4203.38 8275.77,4201.57 8331.24,3952.6 7505.03,3950.34 "/>
   <path class="fil0" d="M5631.95 4520.02c-25.05,-142.17 70.06,-248.89 216.7,-223.81 2.41,29.97 6,13.39 -44.79,63.59l-108.95 108.96c-24.99,25.25 -30.35,37.43 -62.96,51.25zm468.61 133.72c-19.2,-32.13 -79.64,-93.18 -111.74,-110.34 -76.57,47.35 -73.81,116.16 -229.84,100.64 14.79,-35.15 56.07,-66.27 82.27,-92.47 30.53,-30.5 54.26,-57.56 85.47,-86.98 35.27,-33.23 151.51,-141.47 169.25,-174.03 -126.56,-258.54 -626.98,-205.08 -633.92,172.41 -5.33,290.99 350.05,481.12 605.55,233.37 20.6,-19.97 20.97,-18.41 32.96,-42.59z"/>
   <path class="fil0" d="M3959.94 4300.25c103.2,-33.18 192.41,38.82 216.6,113.46 35.19,108.58 -36.35,202.51 -117.04,226.31 -220.93,65.15 -341.49,-262.01 -99.56,-339.78zm3.8 -168.1c-176.87,23.42 -325.46,177.87 -297.45,384.73 59.49,439.39 744.16,358.92 678.99,-98.61 -23.89,-167.79 -185.3,-312.12 -381.54,-286.12z"/>
   <path class="fil0" d="M4376.17 4795.47l158.3 0.81c27.01,-188.19 -71.92,-499.26 165.51,-504.61 97.5,-2.19 164.4,69.11 170.36,162.82 6.73,105.99 -10.2,240.12 3.62,341.02l157.26 0.5c10.15,-106.14 12.58,-385.18 -23.97,-468.19 -115.11,-261.43 -484.59,-265.12 -604,-6.78 -41.1,88.96 -38.96,363.52 -27.08,474.42z"/>
   <path class="fil0" d="M5458.9 4794.83l5.43 -162.02c-265.79,-2.28 -243.49,-81 -242.49,-328.68l236.51 0 6.15 -161.82 -241.28 -0.78 -1.66 -206.36 -163.67 1.35c0.13,143.37 -16.31,509.96 10.45,619.98 50.1,206.01 217.56,238.47 390.56,238.34z"/>
   <path class="fil0" d="M6909 4446.84l158.07 0.56c1.06,90.61 -75.69,267.3 -68.11,347.17 292.35,0.86 238.41,41.2 279.59,-140.56 19.84,-87.5 72.41,-270.84 77.2,-350.21l-411.71 -0.96 -35.04 144z"/>
   <path class="fil0" d="M8485.06 4374.33l-124.68 0.48 -29.7 113.9 125.76 2.33 -24.55 117.67c119.25,6.93 113.4,7.94 126.32,-55.59 4.68,-23.06 6.23,-39.42 18.36,-60.6l124.13 -3.52 24.72 -113.56 -124.21 -0.85 24.4 -119.66 -112.47 -0.35 -28.08 119.76z"/>
  </g>
 </g>
</svg>
