<?xml version="1.0" encoding="UTF-8"?>
<!DOCTYPE svg PUBLIC "-//W3C//DTD SVG 1.1//EN" "http://www.w3.org/Graphics/SVG/1.1/DTD/svg11.dtd">
<!-- Creator: CorelDRAW 2018 (64-Bit) -->
<svg xmlns="http://www.w3.org/2000/svg" xml:space="preserve" width="212.118mm" height="31.947mm" version="1.1" style="shape-rendering:geometricPrecision; text-rendering:geometricPrecision; image-rendering:optimizeQuality; fill-rule:evenodd; clip-rule:evenodd"
viewBox="0 0 18036.28 2716.44"
 xmlns:xlink="http://www.w3.org/1999/xlink">
 <defs>
  <style type="text/css">
   <![CDATA[
    .fil0 {fill:black;fill-rule:nonzero}
   ]]>
  </style>
 </defs>
 <g id="Слой_x0020_1">
  <metadata id="CorelCorpID_0Corel-Layer"/>
  <g id="_1760783603504">
   <g>
    <path class="fil0" style="fill: #fff;" d="M4693.39 605.22c-582.04,0 -1055.61,473.56 -1055.61,1055.61l0 0.57c0,582.04 473.56,1055.04 1055.61,1055.04 582.04,0 1055.03,-472.99 1055.03,-1055.04l0 -0.57c0,-582.05 -472.99,-1055.61 -1055.03,-1055.61zm557.19 1056.18l0 0c0,307.42 -249.79,557.18 -557.19,557.18 -307.42,0 -557.18,-249.77 -557.18,-557.18l0 -0.57c0,-307.42 249.77,-557.19 557.18,-557.19 307.4,0 557.19,249.77 557.19,557.19l0 0.57z"/>
    <path class="fil0" style="fill: #fff;" d="M2542.46 605.44c-305.1,0 -578.51,136.12 -764.5,350.08 -185.99,-213.97 -459.4,-350.08 -764.51,-350.08 -558.87,0 -1013.45,454.59 -1013.45,1013.45l0 0.32 0 248.78 0 803.59 498.21 0 0 -803.59 0 -248.78 0 -0.32c0,-284.13 231.1,-515.24 515.24,-515.24 284.13,0 515.41,231.1 515.41,515.24l0 249.1 0 803.59 498.21 0 0 -803.59 0 -249.1c0,-284.13 231.26,-515.24 515.4,-515.24 284.13,0 515.24,231.1 515.24,515.24l0 0.32 0 248.78 0 803.59 498.21 0 0 -803.59 0 -248.78 0 -0.32c0,-558.87 -454.59,-1013.45 -1013.45,-1013.45z"/>
    <path class="fil0" style="fill: #fff;" d="M6845.42 605.44c-559.67,0 -1014.9,455.23 -1014.9,1014.75l0 0.32 0 248.78 0 802.29 498.21 0 0 -802.29 0 -248.78 0 -0.32c0,-284.79 231.76,-516.54 516.7,-516.54 284.95,0 516.7,231.75 516.7,516.54l0 0.32 0 248.78 0 802.29 498.21 0 0 -802.29 0 -248.78 0 -0.32c0,-559.52 -455.22,-1014.75 -1014.9,-1014.75z"/>
    <path class="fil0" style="fill: #fff;" d="M8440.55 1142.07l0 530.64c0,293.85 203.99,497.86 497.86,497.86l249.2 0 0 498.4 -249.2 0c-481.46,0 -861.77,-307.4 -966.33,-747.05 -19.79,-77.97 -29.95,-162.74 -29.95,-249.2l0 -1672.7 498.42 0 0 644.22 747.06 0 0 497.85 -747.06 0z"/>
    <path class="fil0" style="fill: #fff;" d="M11165.46 2233.85l-21.47 -19.78 -332.29 -333.98 -167.83 169.53 -3.39 3.39 -1.7 1.7c-64.98,64.42 -141.27,109.63 -222.64,134.48 -111.32,38.43 -231.12,38.43 -344.13,1.7l172.91 -172.92 350.36 -354.31 179.71 -179.14 372.4 -374.1c-43.52,-71.2 -94.94,-137.89 -156.54,-197.79 -61.03,-61.6 -126.01,-113.02 -197.78,-154.27l-1.69 0c-333.99,-206.26 -759.48,-206.26 -1095.16,0 -71.2,41.25 -137.88,92.67 -199.49,154.27 -59.9,59.89 -113.01,126.58 -155.96,197.79 -100.01,164.45 -153.15,352.62 -153.15,550.4 0,199.48 54.82,388.79 156.54,553.24 42.95,70.07 94.38,134.49 152.57,192.7 63.3,63.28 131.68,116.4 204.57,156.52 166.14,102.85 355.46,152.58 543.62,152.58 187.61,0 375.23,-49.73 541.94,-152.58 72.9,-40.13 141.27,-93.24 203.99,-156.52l174.62 -172.92zm-1449.47 -393.87l0 0c-19.78,-56.51 -29.95,-118.11 -29.95,-179.14 0,-59.89 10.17,-119.8 28.26,-174.62 27.12,-81.36 71.76,-158.23 135.05,-220.95 63.3,-63.3 137.89,-108.51 217.57,-133.37 116.41,-39.56 241.3,-39.56 353.75,0l-175.75 178.01 -352.62 353.76 -176.31 176.31z"/>
   </g>
  </g>
  <polygon class="fil0" style="fill: #fff;" points="18036.28,47.55 17858.11,826.07 16977.38,826.07 16552.87,2682.82 15774.38,2682.82 16198.87,826.07 15318.13,826.07 15495.91,47.55 "/>
  <path class="fil0" style="fill: #fff;" d="M15305.35 47.55l-177.78 778.52 -1567.07 0c-293.19,0 -586,238.59 -653,531.76 -67.39,293.22 116.58,531.43 409.77,531.43l577.87 0 -177.78 778.47 -577.87 0c-722.33,0 -1175.49,-587.54 -1010.49,-1309.9 164.99,-722.31 887.33,-1310.28 1609.67,-1310.28l1566.68 0z"/>
  <polygon class="fil0" style="fill: #fff;" points="14256.12,1143.26 14255.97,1143.89 13750.79,1143.89 13649.64,1586.49 14154.63,1586.49 14085.31,1889.27 14085.7,1889.27 13907.94,2667.73 14685.65,2667.73 14932.88,1586.49 14932.93,1586.49 15034.23,1143.89 15034.08,1143.89 15034.23,1143.26 "/>
 </g>
</svg>
