<?xml version="1.0" encoding="UTF-8"?>
<!DOCTYPE svg PUBLIC "-//W3C//DTD SVG 1.1//EN" "http://www.w3.org/Graphics/SVG/1.1/DTD/svg11.dtd">
<!-- Creator: CorelDRAW 2018 (64-Bit) -->
<svg xmlns="http://www.w3.org/2000/svg" xml:space="preserve" width="74.2416mm" height="52.1521mm" version="1.1" style="shape-rendering:geometricPrecision; text-rendering:geometricPrecision; image-rendering:optimizeQuality; fill-rule:evenodd; clip-rule:evenodd"
viewBox="0 0 2933.42 2060.63"
 xmlns:xlink="http://www.w3.org/1999/xlink">
 <defs>
  <style type="text/css">
   <![CDATA[
    .fil0 {fill:white}
   ]]>
  </style>
 </defs>
 <g id="Слой_x0020_1">
  <metadata id="CorelCorpID_0Corel-Layer"/>
  <path class="fil0" d="M75.62 545.65c105.37,-3.16 215.36,-0.26 321.24,-0.26l2146.92 0c30.15,-0 52.75,-8.21 52.76,24.41l0 912.09c0,21.56 -4.25,26.56 -26.04,26.56l-2487.73 -0.29c-2.54,-311.94 -7.58,-633.57 -7.64,-944.31l0.49 -18.2zm-52.66 -43.74c-4.02,-82.54 -5.77,-192.66 21.32,-264.05 26.83,-70.71 75.27,-124.4 126.55,-158.68 68.53,-45.81 130.43,-55.97 229,-55.97 94.03,0 188.06,0.08 282.09,-0.01 86.59,-0.08 144.96,43.56 216.21,68.79 78.49,27.8 176.12,19.08 264.84,19.07l849.26 2.98c100.66,-0.02 170.43,10.21 257.2,-26.52 118.71,-50.25 94.56,-64.32 220.88,-64.32 96.42,0 166.85,-2.86 243.82,38.22 60.51,32.29 109.53,81.03 141.84,143.33 39.99,77.1 36.18,153.74 36.18,249.15l0 1137.89c0,104.75 7.33,164.24 -31.4,253.97 -26.45,61.3 -82.93,116.9 -135.17,147 -78.87,45.45 -138.55,44.73 -240.43,44.73 -53.67,0 -80.45,3.88 -128.8,-13.81 -34.9,-12.76 -66.46,-27.8 -101.94,-40.65 -85.86,-31.07 -165.7,-22.63 -262.18,-22.92l-849.26 -2.98c-222.17,0.04 -183.2,-13.5 -367.48,60.17 -46.96,18.77 -65.02,20.19 -119.51,20.19 -95.03,-0 -190.04,-0 -285.07,0 -102.11,0 -152.02,-11.92 -223.66,-58.53 -91.89,-59.79 -144.57,-167.85 -144.73,-283.19 -0.05,-38.25 -3.79,-103.92 1.07,-138.96 47.87,-25.9 38.22,-27.44 70.37,-27.27 32.65,0.17 65.34,0.01 98,0.01l2342.9 0c91.87,0 82.79,-1.68 82.79,-113.05l0 -781.37c0,-111.34 8.84,-110.89 -85.75,-110.89l-2437.93 0c-51.14,0.02 -35.11,-4.71 -71.01,-22.35zm-20.91 9.13c10.15,9.79 42.56,25.2 48.64,33.8 6.67,9.42 3.46,59.05 3.52,75.45 1.14,270.02 6.61,541.83 6.63,811.08 0,16.73 3.26,69.22 -3.32,79.43 -8.01,12.46 -35.64,20.06 -48.68,31.49 -13.63,11.95 -7.44,52.05 -7.44,73.27 0,26.74 -0.05,53.48 -0.01,80.22 0.3,181.26 121.12,329.56 295.81,357.95 49.09,7.98 108.29,4.88 159.04,4.88 70.99,0 259.53,7.24 316.31,-10.77 100.66,-31.94 129.98,-70.73 253.83,-69.77 54.41,0.43 108.91,-0.16 163.32,0.25 319.63,2.39 660.32,-4.12 974.11,3.22 48.1,1.13 91.3,15.99 130.84,31.87 144.27,57.96 109.68,47.06 281.78,45.17 135.28,-1.48 245.87,-67.39 310.95,-179.44 50.9,-87.64 45.9,-166.31 45.9,-278.43l0 -1143.82c0,-161.8 4.97,-244.03 -120.57,-367.11 -57.57,-56.44 -153.05,-86.99 -239.25,-87.68 -182.39,-1.47 -135.17,-14.73 -277.18,49.73 -126.84,57.58 -137.21,41.08 -284.05,41.1 -217.77,0.02 -435.64,-1.47 -653.42,-2.33 -107.35,-0.42 -215.75,-0.85 -323.54,-0.85 -58.07,0 -93.63,-2.59 -142.5,-22.21 -132.86,-53.36 -113.56,-65.45 -258.37,-65.45 -54.44,0 -108.88,0 -163.32,0 -110.37,0 -196.19,-6.74 -284.16,42.69 -110.95,62.35 -182.66,172.2 -185.42,305.16 -1.02,49.22 -2.83,112.86 0.53,161.11z"/>
  <path class="fil0" d="M1726.34 1140.12l14.62 -59.29c-23.8,-1.26 -56.6,5.88 -70.56,-11.89 -16.23,-20.66 0.1,-48.39 13.12,-57.9 21.69,-15.84 39.61,-11.59 69.91,-11.59 27.59,0 55.3,0.26 82.87,-0.09l13.28 -59.66c-89.63,-0.87 -176.72,-18.01 -227.24,59.81 -20.12,30.99 -31.08,73.95 -6.42,108.78 22.67,32.01 61.52,34.27 110.42,31.82z"/>
  <path class="fil0" d="M670.08 1140.65l37.36 0.06c2.79,-24.24 -0.51,-54.4 0.63,-79.32 2.47,-54.05 77.17,-54.4 78.95,0.03 0.84,25.62 -1.53,53.29 0.28,78.62l38.59 0.62c1.55,-26.05 -1.07,-53.63 0.06,-79.25 2.41,-54.7 77.34,-53.57 78.93,-0.01 0.73,24.63 -2.18,55.57 0.56,79.15l37.67 0.21c2.69,-19.96 1.02,-57.85 0.73,-79.3 -0.35,-25.96 -11.17,-46.14 -24.17,-58.11 -22.39,-20.62 -59.45,-28.94 -90.16,-12.74 -11.36,5.99 -16.19,12.8 -24.97,17.23 -39.1,-49.71 -133.98,-24.64 -135.09,51.4 -0.34,23.17 -1.84,59.45 0.62,81.41z"/>
  <polygon class="fil0" points="1850.37,999.25 1917.25,999.48 1885.71,1140.84 1945.66,1141.51 1978.52,999.74 2046.84,999.31 2060.04,940.09 1863.53,939.56 "/>
  <path class="fil0" d="M1418.03 1075.05c-5.96,-33.81 16.66,-59.2 51.54,-53.23 0.57,7.13 1.43,3.18 -10.65,15.13l-25.91 25.92c-5.94,6.01 -7.22,8.9 -14.97,12.19zm111.46 31.8c-4.57,-7.64 -18.94,-22.16 -26.58,-26.24 -18.21,11.26 -17.56,27.63 -54.66,23.94 3.52,-8.36 13.34,-15.76 19.57,-21.99 7.26,-7.25 12.9,-13.69 20.33,-20.69 8.39,-7.9 36.03,-33.65 40.25,-41.39 -30.1,-61.49 -149.12,-48.78 -150.77,41.01 -1.27,69.21 83.26,114.43 144.02,55.51 4.9,-4.75 4.99,-4.38 7.84,-10.13z"/>
  <path class="fil0" d="M1020.36 1022.78c24.54,-7.89 45.76,9.23 51.52,26.99 8.37,25.82 -8.65,48.16 -27.84,53.83 -52.55,15.5 -81.22,-62.32 -23.68,-80.81zm0.9 -39.98c-42.07,5.57 -77.41,42.31 -70.75,91.51 14.15,104.5 176.99,85.37 161.49,-23.45 -5.68,-39.91 -44.07,-74.23 -90.75,-68.05z"/>
  <path class="fil0" d="M1119.36 1140.57l37.65 0.19c6.42,-44.76 -17.1,-118.74 39.37,-120.02 23.19,-0.52 39.1,16.44 40.52,38.73 1.6,25.21 -2.43,57.11 0.86,81.11l37.4 0.12c2.41,-25.24 2.99,-91.61 -5.7,-111.36 -27.38,-62.18 -115.26,-63.06 -143.66,-1.61 -9.78,21.16 -9.27,86.46 -6.44,112.84z"/>
  <path class="fil0" d="M1376.87 1140.41l1.29 -38.54c-63.22,-0.54 -57.91,-19.27 -57.68,-78.17l56.25 0 1.46 -38.49 -57.39 -0.19 -0.4 -49.08 -38.93 0.32c0.03,34.1 -3.88,121.29 2.49,147.46 11.92,49 51.74,56.72 92.89,56.69z"/>
  <path class="fil0" d="M1721.77 1057.65l37.6 0.13c0.25,21.55 -18,63.57 -16.2,82.57 69.53,0.21 56.7,9.8 66.5,-33.43 4.72,-20.81 17.22,-64.42 18.36,-83.29l-97.92 -0.23 -8.33 34.25z"/>
 </g>
</svg>
