<?xml version="1.0" encoding="UTF-8"?>
<!DOCTYPE svg PUBLIC "-//W3C//DTD SVG 1.1//EN" "http://www.w3.org/Graphics/SVG/1.1/DTD/svg11.dtd">
<!-- Creator: CorelDRAW 2018 (64-Bit) -->
<svg xmlns="http://www.w3.org/2000/svg" xml:space="preserve" width="76.7909mm" height="48.4484mm" version="1.1" style="shape-rendering:geometricPrecision; text-rendering:geometricPrecision; image-rendering:optimizeQuality; fill-rule:evenodd; clip-rule:evenodd"
viewBox="0 0 3133.43 1976.92"
 xmlns:xlink="http://www.w3.org/1999/xlink">
 <defs>
  <style type="text/css">
   <![CDATA[
    .fil0 {fill:white}
   ]]>
  </style>
 </defs>
 <g id="Слой_x0020_1">
  <metadata id="CorelCorpID_0Corel-Layer"/>
  <path class="fil0" d="M2790.92 254.49c37.86,1.39 71.27,31.4 85.47,53.57 23.19,36.21 18.74,70.22 18.74,117.82l0 1107.95c0,69 11.68,161 -86.69,190.06 -37.75,11.16 -220.04,4.88 -273.01,4.88 -462,0 -923.99,0 -1385.99,0 -48.59,0 -1088.37,3.85 -1106.84,-2.31l-0.83 -734.07c-4.1,-7.34 -2.88,-8.66 -2.78,-21.98 0.87,-111 -7.04,-697.49 -1.45,-719.25 54.73,-3.57 119.36,-0.59 175.16,-0.59 745.57,0 1491.14,0 2236.7,0 16.86,0 325.09,-5.21 341.51,3.94zm-1867.69 1698.93c-183.74,-0.11 -367.48,-0 -551.21,-0 -117.53,0 -229.89,13.55 -309.24,-101.04 -15.38,-22.21 -39.81,-65.5 -38.16,-101.79 149.74,-3.88 305.3,-0.01 455.74,-0.01l2284.5 0.03c71.98,-0.19 119.86,-35.68 140.56,-85.82 19.51,-47.26 11.56,-159.27 11.56,-216.93l0 -913.74c0,-53.25 7.02,-173.08 -10.42,-214.79 -22.08,-52.81 -65.85,-88.61 -141.69,-88.82 -836.89,-2.27 -1676.52,0.03 -2513.9,0.03 -69.5,0 -160.97,5.11 -227.71,-0.49 0.4,-65.03 51.12,-125.28 82.81,-152.74 48.82,-42.32 106.14,-54.15 189.51,-54.14l605.51 -0.2c29.51,0.17 46.16,26.82 71.22,51.39 29.91,29.32 34.95,29.01 91.13,29.03 40.36,0.02 80.72,0.25 121.08,0.54 160.57,1.13 320.53,3.22 481.11,3.66 55.29,0.16 54.96,-5.51 111.61,-66.85 14.93,-16.17 13.88,-17.94 44.49,-17.63 238.42,2.37 487.24,0.05 726.47,0.05 188.16,0 261.27,4.5 387.38,98.35 76.44,56.88 157.3,168.44 172.87,311.63 7.13,65.61 2.48,872.83 2.48,960.58 0,81.55 3.97,147.35 -16.61,224.08 -30.47,113.57 -110.99,216.02 -211.1,273.08 -142.69,81.33 -253.77,62.53 -417.86,62.53l-665.82 -0.03c-32.08,-3.86 -58.67,-70.77 -108.23,-71.25l-662.95 -4.3c-41.16,-0.2 -40.23,5.51 -74.84,45.97 -8.18,9.56 -16.65,25.38 -30.27,29.6zm-923.23 -215.29c3.33,94.61 69.58,169.9 127.29,202.62 84.04,47.65 185.93,34.51 292.52,34.51l497.21 0.11c19.03,0.11 19.31,0.8 30.15,-10.06 15.27,-15.31 46.42,-59.62 57.24,-63.76 19.22,-7.36 582.16,2.39 654.83,2.52 39.47,0.08 41.88,-4.74 65.29,16.65 65.66,59.98 47.04,54.55 109.95,54.54l739.2 0c111.24,0 189.5,0.22 281.99,-45.05 81.39,-39.84 137.32,-87.56 182.56,-148.69 44.4,-60 82.07,-140.82 91.88,-235.22 5.41,-52.03 2.61,-112.37 2.61,-165.3l0 -821.41c0,-114.53 -1.15,-190.21 -45.93,-283.46 -63.39,-132.03 -196.22,-253.59 -387.2,-272.46 -51.43,-5.08 -111.74,-2.33 -164.15,-2.33l-659.54 0c-87.01,0 -84.38,-11.99 -128.65,38.06 -44.71,50.55 -30.28,46.42 -119.87,46.37l-487.49 -3.93c-155.91,-1.03 -105.73,16.22 -189.4,-58.93 -25.38,-22.8 -13.7,-21.73 -59.12,-21.57 -75.18,0.26 -602.31,-3.94 -659.59,1.3 -96.49,8.82 -166.03,68.79 -200.21,130.8 -9.78,17.74 -18.06,36.54 -24.14,58.84 -16.62,60.95 1.77,47.35 7.88,64.3 3.33,9.25 3.39,768.59 3.55,818.78 0.71,216.62 5.16,436.32 1.97,652.75l-20.85 10.02z"/>
  <path class="fil0" d="M2431.26 1655.95c-7.12,4.73 -5.1,4.07 -16.89,4.07l-1835.24 0c-18.5,0 -20.65,-1.7 -20.65,-21.13l0 -1302.16c0.01,-17.32 3.52,-20.15 20.65,-20.15l1836.83 0c25.78,0 19.22,13.56 19.22,61.53l0 1238.49c0.11,47.81 -3.29,33 -3.93,39.34zm-1894.62 -1319.22l0 1302.16c0,30.19 11.95,42.9 42.49,42.9l1835.24 0c56.73,0 42.62,-50.12 42.62,-141.6l0.06 -1193.93c0.18,-34.81 -6.9,-51.52 -42.69,-51.52l-1836.83 0c-28.32,0 -40.9,11.96 -40.9,41.98z"/>
  <path class="fil0" d="M41.78 992.37l-2.49 -738.45 2751.63 0.57c-16.42,-9.15 -324.64,-3.94 -341.51,-3.94 -745.56,0 -1491.13,0 -2236.7,0 -55.8,0 -120.43,-2.99 -175.16,0.59 -5.59,21.76 2.32,608.25 1.45,719.25 -0.1,13.32 -1.32,14.64 2.78,21.98z"/>
  <path class="fil0" d="M2194.47 937.76c10.77,-0.73 21.65,-0.34 32.45,-0.36 5.4,-0.01 12.78,-0.47 17.88,-0.19 21.05,1.17 15.06,23.13 -4.42,24.67 -11.74,0.93 -24.65,-0.61 -36.9,0.41 -10.77,36.36 -24.37,76.86 1.94,102.53 23.84,23.26 76.08,20.37 111.93,17.61l13.23 -60.95c-14.22,-0 -60.54,2.44 -70.33,-2.55l6.12 -4.93c32.86,-18.82 61.46,-47.92 54.56,-91.65 -9.63,-61.17 -86.56,-46.15 -151.7,-46.51 -28.81,-0.16 -20.25,-13.62 -40.84,77.76 -5.28,23.41 -28.09,114.03 -28.8,129.66l60.89 -0.2 33.99 -145.3z"/>
  <path class="fil0" d="M1899.24 937.4c2.5,-13.82 13.52,-50.56 12.13,-61.56 -37.54,0.02 -109.92,-4.03 -143.07,1.87 -84.45,15.02 -136.61,114.64 -96.47,170.63 25.18,35.12 58.09,33.76 111.5,33.76 5.46,-1.53 5.85,-8.31 7.07,-13.85 1.1,-5 2.47,-10.9 3.73,-16.55 2.27,-10.24 4.98,-20.62 6.88,-30.94 -26.94,-0.87 -58.95,5.78 -72.98,-13.09 -14.71,-19.77 -0.71,-45.64 13.06,-57.6 18.59,-16.13 44.29,-12.69 73.3,-12.69 28.29,0 56.58,0 84.87,0z"/>
  <path class="fil0" d="M737.81 1082.24c5.77,-45.15 -16.92,-121.94 40.73,-122.9 57.45,-0.96 38.72,76.05 41.54,123.01l39.38 -0.27c2.55,-25.02 -0.51,-55.24 0.47,-81 0.9,-23.72 16.8,-41.66 40.58,-41.77 57.61,-0.28 35.81,74.74 41.03,123.11l38.56 0.13c2.99,-18.06 1.37,-63.28 0.94,-83.63 -1.04,-49.45 -41.15,-82.48 -86.69,-79.19 -31.72,2.3 -41.29,17.79 -56.35,26.31 -32.99,-46.84 -138.67,-31.1 -139.16,55.05 -0.13,23.2 -1.98,59.58 0.69,81.45l38.27 -0.31z"/>
  <path class="fil0" d="M2115.92 937.26c2.08,-14.98 13.43,-49.76 12.39,-61.41l-200.28 0.11 -14.07 61.4 69.5 0.31 -32.9 145.47 61.45 0.04 33.91 -145.69 70 -0.23z"/>
  <path class="fil0" d="M1468.87 1014.69c-5.19,-34.49 19.07,-63.08 52.72,-54.08l-0.73 4.44c-0.11,0.2 -2.7,3.47 -2.76,3.54 -2.13,2.43 -4.4,4.5 -6.77,6.79 -5.02,4.88 -8.81,8.01 -13.73,12.88 -7.11,7.04 -20.16,23.1 -28.72,26.43zm30.82 30.21c5.68,-9.41 75.99,-75.83 82.82,-85.87 -31.93,-64.21 -155.83,-48.99 -155.11,44.37 0.69,90.2 117.37,107.85 156.93,43.84l-27.25 -26.49c-17.2,7.5 -17.59,30.53 -57.39,24.15z"/>
  <path class="fil0" d="M1062.43 960.38c25.58,-5.64 47.19,12.08 51.66,33.22 5.41,25.64 -12.5,46.95 -32.22,51.41 -58.97,13.31 -75.96,-72.17 -19.44,-84.62zm-74.9 49.67c8.59,107.7 177.24,96.8 167.2,-15.13 -9.6,-107.06 -176.04,-95.86 -167.2,15.13z"/>
  <path class="fil0" d="M1200.76 1081.81c3.9,-48.44 -15.76,-122.84 41.36,-122.5 57.38,0.34 36.24,75.73 41.04,123.13l38.56 0.03c4.31,-24.85 2.73,-96.6 -6.66,-116.53 -31.61,-67.06 -123.17,-57.38 -147.73,2.6 -8.77,21.41 -7.92,86.83 -5.84,113.9l39.27 -0.62z"/>
  <path class="fil0" d="M1368.66 964.65c3.68,-3.63 1.64,-3.63 13.1,-3.62 5.18,0 10.41,0.13 15.61,0.13 9.94,0 19.88,-0 29.82,0.01l0 -37.14c-10.51,0.01 -51.33,3.57 -58.73,-3.54l0.22 -48.29 -40.01 0.31c0.04,32.42 -3.91,127.52 2.62,152.39 12.22,46.56 51.83,60.05 96.41,56.95l-0.9 -39.14c-62.86,-3.19 -57.47,-13.89 -58.15,-78.06z"/>
  <path class="fil0" d="M1803.85 1082.13c15.73,0.02 37.83,1.35 52.74,0.22 11.56,-0.88 9.39,-8.97 15.75,-36.71 5.11,-22.31 16.9,-62.72 18.62,-83.71l-101.15 -0.15 -8.01 35.31 38.47 0.36c-0.35,20.23 -18.97,69.57 -16.42,84.69z"/>
  <path class="fil0" d="M1368.66 964.65l59.07 -1.87c3.07,-9.81 3.41,-31.06 -0.32,-40.71l-58.93 -1.58c7.4,7.11 48.21,3.55 58.73,3.54l-0 37.14c-9.94,-0.02 -19.88,-0.01 -29.82,-0.01 -5.2,-0 -10.43,-0.13 -15.61,-0.13 -11.46,-0.01 -9.43,-0 -13.1,3.62z"/>
 </g>
</svg>
