<?xml version="1.0" encoding="UTF-8"?>
<!DOCTYPE svg PUBLIC "-//W3C//DTD SVG 1.1//EN" "http://www.w3.org/Graphics/SVG/1.1/DTD/svg11.dtd">
<!-- Creator: CorelDRAW 2018 (64-Bit) -->
<svg xmlns="http://www.w3.org/2000/svg" xml:space="preserve" width="242.012mm" height="31.947mm" version="1.1" style="shape-rendering:geometricPrecision; text-rendering:geometricPrecision; image-rendering:optimizeQuality; fill-rule:evenodd; clip-rule:evenodd"
viewBox="0 0 23478.38 3099.28"
 xmlns:xlink="http://www.w3.org/1999/xlink">
 <defs>
  <style type="text/css">
   <![CDATA[
    .fil0 {fill:black;fill-rule:nonzero}
   ]]>
  </style>
 </defs>
 <g id="Слой_x0020_1">
  <metadata id="CorelCorpID_0Corel-Layer"/>
  <g id="_1760785277968">
   <g>
    <g>
     <path class="fil0" style="fill: #fff;" d="M5354.84 690.52c-664.07,0 -1204.38,540.3 -1204.38,1204.38l0 0.65c0,664.07 540.3,1203.73 1204.38,1203.73 664.07,0 1203.72,-539.65 1203.72,-1203.73l0 -0.65c0,-664.08 -539.65,-1204.38 -1203.72,-1204.38zm635.72 1205.03l0 0c0,350.74 -285,635.71 -635.72,635.71 -350.74,0 -635.71,-284.97 -635.71,-635.71l0 -0.65c0,-350.74 284.97,-635.72 635.71,-635.72 350.72,0 635.72,284.98 635.72,635.72l0 0.65z"/>
     <path class="fil0" style="fill: #fff;" d="M2900.78 690.77c-348.1,0 -660.04,155.3 -872.24,399.42 -212.2,-244.12 -524.14,-399.42 -872.25,-399.42 -637.63,0 -1156.28,518.65 -1156.28,1156.28l0 0.37 0 283.84 0 916.84 568.43 0 0 -916.84 0 -283.84 0 -0.37c0,-324.18 263.67,-587.85 587.85,-587.85 324.18,0 588.04,263.67 588.04,587.85l0 284.21 0 916.84 568.42 0 0 -916.84 0 -284.21c0,-324.18 263.86,-587.85 588.04,-587.85 324.18,0 587.85,263.67 587.85,587.85l0 0.37 0 283.84 0 916.84 568.43 0 0 -916.84 0 -283.84 0 -0.37c0,-637.63 -518.65,-1156.28 -1156.28,-1156.28z"/>
     <path class="fil0" style="fill: #fff;" d="M7810.17 690.77c-638.55,0 -1157.94,519.39 -1157.94,1157.76l0 0.37 0 283.84 0 915.36 568.42 0 0 -915.36 0 -283.84 0 -0.37c0,-324.93 264.42,-589.34 589.52,-589.34 325.11,0 589.52,264.41 589.52,589.34l0 0.37 0 283.84 0 915.36 568.42 0 0 -915.36 0 -283.84 0 -0.37c0,-638.38 -519.38,-1157.76 -1157.94,-1157.76z"/>
     <path class="fil0" style="fill: #fff;" d="M9630.11 1303.02l0 605.42c0,335.27 232.74,568.02 568.02,568.02l284.33 0 0 568.64 -284.33 0c-549.32,0 -983.23,-350.72 -1102.52,-852.34 -22.57,-88.96 -34.17,-185.67 -34.17,-284.33l0 -1908.44 568.66 0 0 735.01 852.35 0 0 568.01 -852.35 0z"/>
     <path class="fil0" style="fill: #fff;" d="M12739.05 2548.67l-24.5 -22.57 -379.12 -381.05 -191.48 193.42 -3.87 3.87 -1.94 1.94c-74.14,73.5 -161.18,125.08 -254.02,153.44 -127.01,43.85 -263.69,43.85 -392.63,1.94l197.28 -197.3 399.73 -404.24 205.04 -204.39 424.89 -426.82c-49.65,-81.24 -108.32,-157.33 -178.6,-225.66 -69.63,-70.28 -143.77,-128.95 -225.65,-176.01l-1.93 0c-381.06,-235.33 -866.52,-235.33 -1249.51,0 -81.24,47.06 -157.32,105.73 -227.6,176.01 -68.35,68.34 -128.94,144.42 -177.94,225.66 -114.11,187.62 -174.73,402.31 -174.73,627.98 0,227.59 62.54,443.58 178.6,631.21 49,79.95 107.68,153.45 174.07,219.86 72.23,72.2 150.23,132.8 233.4,178.58 189.55,117.35 405.55,174.08 620.23,174.08 214.05,0 428.11,-56.73 618.31,-174.08 83.17,-45.78 161.18,-106.38 232.74,-178.58l199.23 -197.3zm-1653.75 -449.38l0 0c-22.57,-64.47 -34.17,-134.76 -34.17,-204.39 0,-68.34 11.6,-136.68 32.24,-199.23 30.95,-92.83 81.88,-180.53 154.09,-252.09 72.22,-72.22 157.33,-123.8 248.23,-152.17 132.81,-45.13 275.3,-45.13 403.6,0l-200.52 203.1 -402.31 403.61 -201.16 201.16z"/>
    </g>
   </g>
   <g>
    <polygon class="fil0" style="fill: #fff;" points="20578.21,54.25 20374.93,942.49 19370.06,942.49 18885.74,3060.92 17997.52,3060.92 18481.84,942.49 17476.97,942.49 17679.81,54.25 "/>
    <path class="fil0" style="fill: #fff;" d="M22573.82 2169.19c-63.19,0 -116.67,-20.76 -156.43,-55.24 428.64,-158.2 794.09,-542.66 896.61,-991.16 134.77,-589.05 -235.09,-1068.54 -824.15,-1068.54l-1669.5 0 -101.18 444.15 -101.62 444.1 -484.34 2118.43 887.78 0 199.73 -870.49 202.4 -886.05 -0.46 0 83.08 -361.89 780.85 0c99.42,0 162.17,80.87 139.18,180.3 -22.54,99.43 -121.96,180.73 -221.38,180.73l-382.69 0 -54.8 0.86 -126.38 0c0,0 -159.69,664.43 -196.94,887.82 -45.36,496.44 386.52,865.19 927.4,865.19l904.12 0 203.27 -888.19 -904.56 0z"/>
    <path class="fil0" style="fill: #fff;" d="M17462.39 54.25l-202.84 888.24 -1787.92 0c-334.51,0 -668.59,272.22 -745.03,606.7 -76.88,334.54 133,606.32 467.53,606.32l659.31 0 -202.84 888.18 -659.31 0c-824.14,0 -1341.16,-670.34 -1152.9,-1494.51 188.24,-824.11 1012.39,-1494.94 1836.53,-1494.94l1787.48 0z"/>
   </g>
   <polygon class="fil0" style="fill: #fff;" points="16265.29,1304.38 16265.12,1305.11 15688.75,1305.11 15573.34,1810.08 16149.5,1810.08 16070.41,2155.53 16070.85,2155.53 15868.04,3043.71 16755.36,3043.71 17037.43,1810.08 17037.49,1810.08 17153.06,1305.11 17152.89,1305.11 17153.06,1304.38 "/>
  </g>
 </g>
</svg>
