<?xml version="1.0" encoding="UTF-8"?>
<!DOCTYPE svg PUBLIC "-//W3C//DTD SVG 1.1//EN" "http://www.w3.org/Graphics/SVG/1.1/DTD/svg11.dtd">
<!-- Creator: CorelDRAW 2018 (64-Bit) -->
<svg xmlns="http://www.w3.org/2000/svg" xml:space="preserve" width="131.313mm" height="31.9468mm" version="1.1" style="shape-rendering:geometricPrecision; text-rendering:geometricPrecision; image-rendering:optimizeQuality; fill-rule:evenodd; clip-rule:evenodd"
viewBox="0 0 28545.6 6944.8"
 xmlns:xlink="http://www.w3.org/1999/xlink">
 <defs>
  <style type="text/css">
   <![CDATA[
    .fil0 {fill:white;fill-rule:nonzero}
   ]]>
  </style>
 </defs>
 <g id="Слой_x0020_1">
  <metadata id="CorelCorpID_0Corel-Layer"/>
  <g id="_2500374402352">
   <path class="fil0" d="M11999.12 1547.27c-1488.03,0 -2698.77,1210.71 -2698.77,2698.77l0 1.46c0,1488.03 1210.71,2697.31 2698.77,2697.31 1488.03,0 2697.29,-1209.26 2697.29,-2697.31l0 -1.46c0,-1488.08 -1209.26,-2698.77 -2697.29,-2698.77zm1424.51 2700.22l0 0c0,785.94 -638.62,1424.49 -1424.51,1424.49 -785.94,0 -1424.49,-638.55 -1424.49,-1424.49l0 -1.46c0,-785.94 638.55,-1424.51 1424.49,-1424.51 785.9,0 1424.51,638.55 1424.51,1424.51l0 1.46z"/>
   <path class="fil0" d="M6500.05 1547.81c-780.03,0 -1479.01,348.01 -1954.52,895.02 -475.51,-547.03 -1174.5,-895.02 -1954.54,-895.02 -1428.82,0 -2590.99,1162.21 -2590.99,2590.99l0 0.83 0 636.03 0 2054.45 1273.73 0 0 -2054.45 0 -636.03 0 -0.83c0,-726.4 590.83,-1317.25 1317.25,-1317.25 726.4,0 1317.69,590.83 1317.69,1317.25l0 636.86 0 2054.45 1273.73 0 0 -2054.45 0 -636.86c0,-726.4 591.25,-1317.25 1317.67,-1317.25 726.4,0 1317.25,590.83 1317.25,1317.25l0 0.83 0 636.03 0 2054.45 1273.73 0 0 -2054.45 0 -636.03 0 -0.83c0,-1428.82 -1162.21,-2590.99 -2590.99,-2590.99l-0.02 0z"/>
   <path class="fil0" d="M17501 1547.81c-1430.86,0 -2594.68,1163.84 -2594.68,2594.31l0 0.83 0 636.03 0 2051.13 1273.73 0 0 -2051.13 0 -636.03 0 -0.83c0,-728.09 592.51,-1320.58 1320.99,-1320.58 728.51,0 1320.99,592.49 1320.99,1320.58l0 0.83 0 636.03 0 2051.13 1273.73 0 0 -2051.13 0 -636.03 0 -0.83c0,-1430.47 -1163.82,-2594.31 -2594.68,-2594.31l-0.09 0z"/>
   <path class="fil0" d="M21579.1 2919.76l0 1356.64c0,751.27 521.51,1272.82 1272.82,1272.82l637.09 0 0 1274.21 -637.09 0c-1230.91,0 -2203.19,-785.9 -2470.51,-1909.91 -50.59,-199.34 -76.56,-416.06 -76.56,-637.09l0 -4276.43 1274.25 0 0 1647.01 1909.94 0 0 1272.8 -1909.94 0 0 -0.04z"/>
   <path class="fil0" d="M28545.6 5711l-54.89 -50.56 -849.52 -853.85 -429.08 433.43 -8.67 8.67 -4.35 4.35c-166.13,164.69 -361.17,280.28 -569.2,343.82 -284.6,98.26 -590.88,98.26 -879.81,4.35l442.06 -442.08 895.72 -905.83 459.45 -457.99 952.09 -956.41c-111.26,-182.04 -242.73,-352.54 -400.21,-505.66 -156.04,-157.5 -322.17,-288.95 -505.64,-394.4l-4.33 0c-853.87,-527.31 -1941.7,-527.31 -2799.89,0 -182.04,105.45 -352.51,236.93 -510.01,394.4 -153.15,153.11 -288.93,323.62 -398.73,505.66 -255.69,420.43 -391.53,901.5 -391.53,1407.14 0,509.99 140.15,993.98 400.21,1414.4 109.8,179.15 241.3,343.84 390.06,492.66 161.82,161.78 336.64,297.58 523.01,400.16 424.75,262.95 908.76,390.08 1389.82,390.08 479.64,0 959.3,-127.15 1385.51,-390.08 186.37,-102.61 361.17,-238.39 521.51,-400.16l446.42 -442.08 0.02 -0.02zm-3705.72 -1006.96l0 0c-50.56,-144.48 -76.56,-301.95 -76.56,-457.99 0,-153.11 26,-306.28 72.26,-446.42 69.32,-208 183.45,-404.53 345.27,-564.88 161.82,-161.82 352.54,-277.41 556.25,-340.97 297.62,-101.13 616.9,-101.13 904.39,0l-449.32 455.1 -901.5 904.41 -450.75 450.75 -0.04 0z"/>
  </g>
 </g>
</svg>
