<svg version="1.1" xmlns="http://www.w3.org/2000/svg" xmlns:xlink="http://www.w3.org/1999/xlink" type="image/svg+xml">
    <symbol id="search" viewBox="0 0 56.966 56.966">
        <path id="search" 
        	d="M55.146,51.887L41.588,37.786c3.486-4.144,5.396-9.358,5.396-14.786c0-12.682-10.318-23-23-23s-23,10.318-23,23
			s10.318,23,23,23c4.761,0,9.298-1.436,13.177-4.162l13.661,14.208c0.571,0.593,1.339,0.92,2.162,0.92
			c0.779,0,1.518-0.297,2.079-0.837C56.255,54.982,56.293,53.08,55.146,51.887z M23.984,6c9.374,0,17,7.626,17,17s-7.626,17-17,17
			s-17-7.626-17-17S14.61,6,23.984,6z"/>
    </symbol>
    <symbol id="arrow-down" viewBox="0 0 451.847 451.847">
        <path id="arrow-down" d="M225.923,354.706c-8.098,0-16.195-3.092-22.369-9.263L9.27,151.157c-12.359-12.359-12.359-32.397,0-44.751
		c12.354-12.354,32.388-12.354,44.748,0l171.905,171.915l171.906-171.909c12.359-12.354,32.391-12.354,44.744,0
		c12.365,12.354,12.365,32.392,0,44.751L248.292,345.449C242.115,351.621,234.018,354.706,225.923,354.706z"/>
    </symbol>
    <symbol id="logo" viewBox="0 0 1663.06 1015.99">
		<g id="logo">
			<polygon class="fil0" points="1076.5,0 710.58,633.77 489.91,1015.99 931.26,1015.99 1663.08,1015.99 "/>
			<polygon class="fil0" points="659.52,546.57 659.81,545.8 465.62,209.53 0.02,1015.98 388.53,1015.98 "/>
			<polygon class="fil1" points="659.52,546.57 388.53,1015.98 659.81,546.1 "/>
		</g>
    </symbol>
    <symbol id="arrow-right-slider" viewBox="0 0 492.004 492.004">
        <path id="arrow-right-slider" d="M382.678,226.804L163.73,7.86C158.666,2.792,151.906,0,144.698,0s-13.968,2.792-19.032,7.86l-16.124,16.12
			c-10.492,10.504-10.492,27.576,0,38.064L293.398,245.9l-184.06,184.06c-5.064,5.068-7.86,11.824-7.86,19.028
			c0,7.212,2.796,13.968,7.86,19.04l16.124,16.116c5.068,5.068,11.824,7.86,19.032,7.86s13.968-2.792,19.032-7.86L382.678,265
			c5.076-5.084,7.864-11.872,7.848-19.088C390.542,238.668,387.754,231.884,382.678,226.804z"/>
    </symbol>
    <symbol id="arrow-left-slider" viewBox="0 0 492 492">
        <path id="arrow-left-slider" d="M198.608,246.104L382.664,62.04c5.068-5.056,7.856-11.816,7.856-19.024c0-7.212-2.788-13.968-7.856-19.032l-16.128-16.12
			C361.476,2.792,354.712,0,347.504,0s-13.964,2.792-19.028,7.864L109.328,227.008c-5.084,5.08-7.868,11.868-7.848,19.084
			c-0.02,7.248,2.76,14.028,7.848,19.112l218.944,218.932c5.064,5.072,11.82,7.864,19.032,7.864c7.208,0,13.964-2.792,19.032-7.864
			l16.124-16.12c10.492-10.492,10.492-27.572,0-38.06L198.608,246.104z"/>
    </symbol>
    <symbol id="android-logo" viewBox="0 0 505.145 505.145">
		<path d="M68.541,164.715h-1.294c-16.588,0-30.113,13.568-30.113,30.113v131.107
			c0,16.61,13.525,30.134,30.113,30.134h1.316c16.588,0,30.113-13.568,30.113-30.134V194.827
			C98.654,178.283,85.108,164.715,68.541,164.715z"/>
		<path d="M113.085,376.54c0,15.229,12.446,27.632,27.675,27.632h29.574v70.817
			c0,16.631,13.568,30.156,30.113,30.156h1.294c16.61,0,30.156-13.546,30.156-30.156v-70.817h41.33v70.817
			c0,16.631,13.611,30.156,30.156,30.156h1.273c16.609,0,30.134-13.546,30.134-30.156v-70.817h29.595
			c15.207,0,27.654-12.403,27.654-27.632V169.525H113.085V376.54z"/>
		<path d="M322.041,43.983l23.491-36.26c1.51-2.287,0.841-5.414-1.467-6.903
			c-2.286-1.51-5.414-0.884-6.903,1.467l-24.353,37.512c-18.27-7.485-38.676-11.691-60.226-11.691
			c-21.571,0-41.934,4.206-60.247,11.691l-24.31-37.512c-1.488-2.351-4.638-2.977-6.946-1.467
			c-2.308,1.488-2.977,4.616-1.467,6.903l23.512,36.26c-42.387,20.773-70.968,59.924-70.968,104.834
			c0,2.761,0.173,5.479,0.41,8.175h280.053c0.237-2.696,0.388-5.414,0.388-8.175C393.009,103.907,364.406,64.756,322.041,43.983z
			 M187.655,108.911c-7.442,0-13.482-5.997-13.482-13.46c0-7.463,6.04-13.439,13.482-13.439c7.485,0,13.482,5.975,13.482,13.439
			S195.097,108.911,187.655,108.911z M317.49,108.911c-7.442,0-13.482-5.997-13.482-13.46c0-7.463,6.04-13.439,13.482-13.439
			c7.463,0,13.46,5.975,13.46,13.439C330.95,102.914,324.953,108.911,317.49,108.911z"/>
		<path d="M437.876,164.715h-1.251c-16.588,0-30.156,13.568-30.156,30.113v131.107
			c0,16.61,13.59,30.134,30.156,30.134h1.273c16.609,0,30.113-13.568,30.113-30.134V194.827
			C468.011,178.283,454.464,164.715,437.876,164.715z"/>
    </symbol>
    <symbol id="apple" viewBox="0 0 305 305">
		<path d="M40.738,112.119c-25.785,44.745-9.393,112.648,19.121,153.82C74.092,286.523,88.502,305,108.239,305
		c0.372,0,0.745-0.007,1.127-0.022c9.273-0.37,15.974-3.225,22.453-5.984c7.274-3.1,14.797-6.305,26.597-6.305
		c11.226,0,18.39,3.101,25.318,6.099c6.828,2.954,13.861,6.01,24.253,5.815c22.232-0.414,35.882-20.352,47.925-37.941
		c12.567-18.365,18.871-36.196,20.998-43.01l0.086-0.271c0.405-1.211-0.167-2.533-1.328-3.066c-0.032-0.015-0.15-0.064-0.183-0.078
		c-3.915-1.601-38.257-16.836-38.618-58.36c-0.335-33.736,25.763-51.601,30.997-54.839l0.244-0.152
		c0.567-0.365,0.962-0.944,1.096-1.606c0.134-0.661-0.006-1.349-0.386-1.905c-18.014-26.362-45.624-30.335-56.74-30.813
		c-1.613-0.161-3.278-0.242-4.95-0.242c-13.056,0-25.563,4.931-35.611,8.893c-6.936,2.735-12.927,5.097-17.059,5.097
		c-4.643,0-10.668-2.391-17.645-5.159c-9.33-3.703-19.905-7.899-31.1-7.899c-0.267,0-0.53,0.003-0.789,0.008
		C78.894,73.643,54.298,88.535,40.738,112.119z"/>
		<path d="M212.101,0.002c-15.763,0.642-34.672,10.345-45.974,23.583c-9.605,11.127-18.988,29.679-16.516,48.379
		c0.155,1.17,1.107,2.073,2.284,2.164c1.064,0.083,2.15,0.125,3.232,0.126c15.413,0,32.04-8.527,43.395-22.257
		c11.951-14.498,17.994-33.104,16.166-49.77C214.544,0.921,213.395-0.049,212.101,0.002z"/>
    </symbol>
    <symbol id="windows-8" viewBox="0 0 480 480">
        <path id="windows-8" d="M0.176,224L0.001,67.963l192-26.072V224H0.176z M224.001,37.241L479.937,0v224H224.001V37.241z M479.999,256l-0.062,224
		l-255.936-36.008V256H479.999z M192.001,439.918L0.157,413.621L0.147,256h191.854V439.918z"/>
    </symbol>
    <symbol id="phone" viewBox="0 0 93.268 93.268">
        <path id="phone" d="M71.065,4.551V4.035C71.065,1.807,69.26,0,67.029,0H26.226c-2.228,0-4.036,1.807-4.036,4.035v1.474h0.018v82.25h-0.018 v1.474c0,2.229,1.808,4.035,4.036,4.035h40.804c2.229,0,4.036-1.807,4.036-4.035v-0.974h0.013V4.551H71.065z M33.33,2.586 c0.646,0,1.169,0.523,1.169,1.168s-0.523,1.168-1.169,1.168c-0.645,0-1.168-0.523-1.168-1.168S32.685,2.586,33.33,2.586z M28.268,2.034c0.95,0,1.721,0.77,1.721,1.72c0,0.95-0.771,1.72-1.721,1.72c-0.95,0-1.72-0.77-1.72-1.72 C26.547,2.804,27.317,2.034,28.268,2.034z
        M70.078,86.759H23.208V7.384h46.871V86.759z"/>
    </symbol>
    <symbol id="notebook" viewBox="0 22 115.713 69.5">
        <path id="notebook" d="M114.515,88.813h-6.816c0.59-0.826,0.946-1.833,0.946-2.925V27.206c0-2.79-2.271-5.059-5.061-5.059H11.011
		c-2.789,0-5.059,2.27-5.059,5.059v58.682c0,1.114,0.374,2.138,0.987,2.976H0.058c0,0-0.309,0.313,0.506,1.127
		c2.311,2.312,7.502,2.512,7.502,2.512v-0.006c0,0,97.234,0.023,97.342,0.017c5.42,0,7.17-1.625,8.603-2.573
		C115.072,88.875,114.515,88.813,114.515,88.813z M63.798,90.047H50.771v-0.885h13.025L63.798,90.047L63.798,90.047z M104.91,84.725
		H9.536V25.558h95.375V84.725z"/>
    </symbol>
    <symbol id="arrow-to-right" viewBox="0 0 268.832 268.832">
        <path id="arrow-to-right" d="M265.171,125.577l-80-80c-4.881-4.881-12.797-4.881-17.678,0c-4.882,4.882-4.882,12.796,0,17.678l58.661,58.661H12.5
		c-6.903,0-12.5,5.597-12.5,12.5c0,6.902,5.597,12.5,12.5,12.5h213.654l-58.659,58.661c-4.882,4.882-4.882,12.796,0,17.678
		c2.44,2.439,5.64,3.661,8.839,3.661s6.398-1.222,8.839-3.661l79.998-80C270.053,138.373,270.053,130.459,265.171,125.577z"/>
    </symbol>
    <symbol id="cash" viewBox="0 0 25.771 25.771">
	    <g>
			<path style="fill:#030104;" d="M24.171,13.728v9.8h-18.8v-9.8H24.171 M25.771,12.128h-22v13h22V12.128L25.771,12.128z"/>
		</g>
		<g>
			<path style="fill:#030104;" d="M19.771,12.128l2.252,2.252c-0.017,0.083-0.05,0.16-0.05,0.248c0,0.717,0.581,1.297,1.298,1.297
				c0.088,0,0.164-0.033,0.247-0.049l2.253,2.252v-6H19.771z"/>
			<circle style="fill:#030104;" cx="21.271" cy="18.628" r="1.298"/>
			<ellipse style="fill:#030104;" cx="14.771" cy="18.628" rx="3.926" ry="3.414"/>
			<circle style="fill:#030104;" cx="8.271" cy="18.628" r="1.297"/>
			<path style="fill:#030104;" d="M3.771,18.128l2.252-2.252c0.083,0.017,0.16,0.05,0.248,0.05c0.717,0,1.297-0.581,1.297-1.298
				c0-0.088-0.033-0.164-0.05-0.247l2.253-2.253h-6V18.128z"/>
			<path style="fill:#030104;" d="M7.569,22.628c0-0.717-0.581-1.297-1.298-1.297c-0.088,0-0.164,0.033-0.247,0.049l-2.253-2.252v6h6
				l-2.252-2.252C7.536,22.793,7.569,22.715,7.569,22.628z"/>
			<path style="fill:#030104;" d="M23.271,21.33c-0.717,0-1.297,0.581-1.297,1.298c0,0.088,0.033,0.164,0.05,0.247l-2.253,2.253h6v-6
				l-2.252,2.252C23.436,21.363,23.359,21.33,23.271,21.33z"/>
		</g>
		<g>
			<circle style="fill:#030104;" cx="18.473" cy="8.505" r="1.297"/>
			<path style="fill:#030104;" d="M2.271,12.128c0-0.828,0.672-1.5,1.5-1.5h0.82L4.628,10.5L16.205,4.16l0.885,0.258
				c0.025,0.08,0.034,0.164,0.077,0.241c0.344,0.63,1.132,0.859,1.762,0.515c0.076-0.042,0.128-0.107,0.191-0.162l0.887,0.26
				l2.017,3.682L21.765,9.84c-0.079,0.024-0.163,0.033-0.24,0.075c-0.293,0.16-0.488,0.422-0.591,0.713h3.831l-2.586-4.723h0.001
				l-2.883-5.262l-5.264,2.882h0.001L5.263,8.328L0,11.21l2.271,4.147V12.128z"/>
			<path style="fill:#030104;" d="M11.131,8.634c-0.871,0.476-1.498,1.198-1.85,1.994h7.233c-0.058-0.305-0.145-0.604-0.299-0.885
				C15.308,8.089,13.033,7.593,11.131,8.634z"/>
		</g>
    </symbol>
    <symbol id="print" viewBox="0 0 60 60">
        <g id="print">
			<path d="M42,43H18c-0.553,0-1,0.447-1,1s0.447,1,1,1h24c0.553,0,1-0.447,1-1S42.553,43,42,43z"/>
			<path d="M42,48H18c-0.553,0-1,0.447-1,1s0.447,1,1,1h24c0.553,0,1-0.447,1-1S42.553,48,42,48z"/>
			<g>
				<path d="M51,17V0H9v17H0v34h6v3h3v6h42v-6h3v-3h6V17H51z M11,2h38v15H11V2z M49,54v4H11v-4V37h38V54z M50,32c-2.757,0-5-2.243-5-5
					s2.243-5,5-5s5,2.243,5,5S52.757,32,50,32z"/>
				<circle cx="50" cy="27" r="3"/>
			</g>
		</g>
    </symbol>
    <symbol id="arrow-left" viewBox="0 0 86.001 86.001">
        <path id="arrow-left" d="M64.998,80.095c1.338,1.352,1.338,3.541,0,4.893c-1.336,1.35-3.506,1.352-4.844,0l-39.151-39.54
		c-1.338-1.352-1.338-3.543,0-4.895l39.15-39.539c1.338-1.352,3.506-1.352,4.844,0C66.335,2.366,66.335,4.556,65,5.907
		L29.294,43.001L64.998,80.095z"/>
    </symbol>
    <symbol id="facebook" viewBox="0 0 291.319 291.319">
		<g>
			<path style="fill:#3B5998;" d="M145.659,0c80.45,0,145.66,65.219,145.66,145.66c0,80.45-65.21,145.659-145.66,145.659
				S0,226.109,0,145.66C0,65.219,65.21,0,145.659,0z"/>
			<path style="fill:#FFFFFF;" d="M163.394,100.277h18.772v-27.73h-22.067v0.1c-26.738,0.947-32.218,15.977-32.701,31.763h-0.055
				v13.847h-18.207v27.156h18.207v72.793h27.439v-72.793h22.477l4.342-27.156h-26.81v-8.366
				C154.791,104.556,158.341,100.277,163.394,100.277z"/>
		</g>
    </symbol>
    <symbol id="map" viewBox="0 0 177.5 177.5">
        <path id="map" 
        	d="M88.75 0c49.02,0 88.75,39.73 88.75,88.75 0,49.02 -39.73,88.75 -88.75,88.75 -49.02,0 -88.75,-39.73 -88.75,-88.75 0,-49.02 39.73,-88.75 88.75,-88.75zm-0 38.45c-20.42,0 -37.03,16.61 -37.03,37.04 0,5.33 1.09,10.42 3.24,15.12 9.26,20.26 27.01,41.66 32.24,47.73 0.39,0.46 0.96,0.72 1.56,0.72 0.6,0 1.17,-0.26 1.56,-0.72 5.22,-6.07 22.97,-27.46 32.24,-47.73 2.15,-4.7 3.24,-9.79 3.24,-15.12 -0,-20.42 -16.62,-37.04 -37.04,-37.04zm0 56.27c-10.6,0 -19.24,-8.63 -19.24,-19.24 0,-10.61 8.63,-19.24 19.24,-19.24 10.61,0 19.24,8.63 19.24,19.24 0,10.61 -8.63,19.24 -19.24,19.24z"/>
    </symbol>
    <symbol id="phone-symbol" viewBox="0 0 485.213 485.212">
        <path id="phone-symbol" d="M242.607,0C108.629,0,0.001,108.628,0.001,242.606c0,133.976,108.628,242.606,242.606,242.606
		c133.978,0,242.604-108.631,242.604-242.606C485.212,108.628,376.585,0,242.607,0z M370.719,353.989l-19.425,19.429
		c-3.468,3.463-13.623,5.624-13.949,5.624c-61.452,0.536-120.621-23.602-164.095-67.08c-43.593-43.618-67.759-102.998-67.11-164.657
		c0-0.028,2.224-9.892,5.689-13.324l19.424-19.427c7.108-7.141,20.762-10.368,30.327-7.168l4.086,1.363
		c9.537,3.197,19.55,13.742,22.185,23.457l9.771,35.862c2.635,9.743-0.919,23.604-8.025,30.712l-12.97,12.972
		c12.734,47.142,49.723,84.138,96.873,96.903l12.965-12.975c7.141-7.141,20.997-10.692,30.719-8.061l35.857,9.806
		c9.717,2.67,20.26,12.62,23.456,22.154l1.363,4.145C381.028,333.262,377.826,346.913,370.719,353.989z"/>
    </symbol>
    <symbol id="email" viewBox="0 0 299.997 299.997">
		<path id="email" d="M149.996,0C67.157,0,0.001,67.158,0.001,149.997c0,82.837,67.156,150,149.995,150s150-67.163,150-150 C299.996,67.158,232.835,0,149.996,0z M149.999,52.686l88.763,55.35H61.236L149.999,52.686z M239.868,196.423h-0.009
		c0,8.878-7.195,16.072-16.072,16.072H76.211c-8.878,0-16.072-7.195-16.072-16.072v-84.865c0-0.939,0.096-1.852,0.252-2.749
		l84.808,52.883c0.104,0.065,0.215,0.109,0.322,0.169c0.112,0.062,0.226,0.122,0.34,0.179c0.599,0.309,1.216,0.558,1.847,0.721
		c0.065,0.018,0.13,0.026,0.195,0.041c0.692,0.163,1.393,0.265,2.093,0.265h0.005c0.005,0,0.01,0,0.01,0
		c0.7,0,1.401-0.099,2.093-0.265c0.065-0.016,0.13-0.023,0.195-0.041c0.63-0.163,1.245-0.412,1.847-0.721
		c0.114-0.057,0.228-0.117,0.34-0.179c0.106-0.06,0.218-0.104,0.322-0.169l84.808-52.883c0.156,0.897,0.252,1.808,0.252,2.749
		V196.423z"/>
    </symbol>
    <symbol id="question-mark" viewBox="0 0 90 90">
        <path id="question-mark" d="M65.449,6.169C59.748,2.057,52.588,0,43.971,0c-6.559,0-12.09,1.449-16.588,4.34
			C20.25,8.871,16.457,16.562,16,27.412h16.531c0-3.158,0.922-6.203,2.766-9.137c1.846-2.932,4.975-4.396,9.389-4.396
			c4.488,0,7.58,1.19,9.271,3.568c1.693,2.381,2.539,5.018,2.539,7.91c0,2.513-1.262,4.816-2.781,6.91
			c-0.836,1.22-1.938,2.342-3.307,3.369c0,0-8.965,5.75-12.9,10.368c-2.283,2.681-2.488,6.692-2.689,12.449
			c-0.014,0.409,0.143,1.255,1.576,1.255c1.433,0,11.582,0,12.857,0s1.541-0.951,1.559-1.362c0.09-2.098,0.326-3.167,0.707-4.377
			c0.723-2.286,2.688-4.283,4.893-5.997l4.551-3.141c4.107-3.199,7.385-5.826,8.83-7.883C72.264,33.562,74,29.393,74,24.443
			C74,16.373,71.148,10.281,65.449,6.169z M43.705,69.617c-5.697-0.17-10.398,3.771-10.578,9.951
			c-0.178,6.178,4.293,10.258,9.99,10.426c5.949,0.177,10.523-3.637,10.701-9.814C53.996,74,49.654,69.793,43.705,69.617z"/>
    </symbol>
	<symbol id="gt-plus" viewBox="0 0 11688.63 4302.46">
		<g id="gt-plus">
			<polygon points="10204.67,3347.34 10343.69,2738.57 9699.91,2738.57 9833.93,2152.85 10477.02,2152.85 10616.4,1544.02 11183.55,1544.02 11044.33,2152.85 11688.63,2152.85 11554.82,2738.57 10910.41,2738.57 10771.2,3347.34 "/>
			<polygon points="5552.4,0 5262.13,1271.07 6700.06,1271.07 6007.01,4302.46 7278.04,4302.46 7971.07,1271.07 9409.02,1271.07 9699.91,0 "/>
			<polygon points="3528.23,1788.88 3527.99,1789.93 2703.2,1789.93 2538.07,2512.54 3362.54,2512.54 3249.36,3006.87 3250,3006.87 2959.77,4277.83 4229.51,4277.83 4633.15,2512.54 4633.22,2512.54 4798.6,1789.93 4798.36,1789.93 4798.6,1788.88 "/>
			<path d="M55.38 2139.21c-269.36,1179.39 470.47,2138.62 1649.79,2138.62l943.47 0 290.25 -1270.96 -943.47 0c-478.68,0 -779.04,-388.93 -669.03,-867.66 109.41,-478.65 587.47,-868.15 1066.14,-868.15l2558.47 0 290.27 -1271.07 -2557.86 0c-1179.32,0 -2358.62,959.91 -2628.02,2139.21z"/>
		</g>
	</symbol>
    <symbol id="gtr" viewBox="0 0 16410.93 5098.04">
		<g id="gtr">
			<polygon points="11493.49,0 11148.81,1506.08 9445,1506.08 8623.78,5098.04 7117.75,5098.04 7938.95,1506.08 6235.11,1506.08 6579.03,0 "/>
			<path d="M14877.2 3586.05c-107.15,0 -197.82,-35.2 -265.25,-93.66 726.8,-268.24 1346.44,-920.12 1520.28,-1680.59 228.51,-998.79 -398.62,-1811.79 -1397.4,-1811.79l-2830.76 0 -171.57 753.08 -172.31 753 -821.23 3591.95 1505.29 0 338.66 -1475.98 343.18 -1502.36 -0.77 0 140.87 -613.61 1323.99 0c168.57,0 274.97,137.12 236,305.71 -38.21,168.59 -206.78,306.43 -375.37,306.43l-648.88 0 -92.92 1.46 -214.29 0c0,0 -270.77,1126.6 -333.92,1505.36 -76.92,841.74 655.37,1467 1572.47,1467l1533.01 0 344.66 -1506 -1533.75 0z"/>
			<path d="M6210.39 0l-343.92 1506.08 -3031.56 0c-567.19,0 -1133.64,461.57 -1263.26,1028.71 -130.36,567.24 225.52,1028.07 792.73,1028.07l1117.91 0 -343.92 1505.98 -1117.91 0c-1397.39,0 -2274.03,-1136.61 -1954.84,-2534.05 319.18,-1397.34 1716.58,-2534.79 3113.97,-2534.79l3030.8 0z"/>
			<polygon points="4180.61,2119.69 4180.33,2120.92 3203.04,2120.92 3007.36,2977.14 3984.29,2977.14 3850.17,3562.89 3850.93,3562.89 3507.04,5068.85 5011.56,5068.85 5489.84,2977.14 5489.94,2977.14 5685.9,2120.92 5685.6,2120.92 5685.9,2119.69 "/>
		</g>
    </symbol>
    <symbol id="gt" viewBox="0 0 8049.54 3570.43">
		<g id="gt">
			<polygon points="4607.69,0 4366.81,1054.81 5560.09,1054.81 4984.96,3570.43 6039.73,3570.43 6614.85,1054.81 7808.14,1054.81 8049.54,0 "/>
			<polygon points="2927.91,1484.51 2927.72,1485.39 2243.26,1485.39 2106.22,2085.05 2790.42,2085.05 2696.49,2495.28 2697.02,2495.28 2456.18,3549.99 3509.88,3549.99 3844.84,2085.05 3844.9,2085.05 3982.14,1485.39 3981.95,1485.39 3982.14,1484.51 "/>
			<path d="M45.94 1775.24c-223.53,978.72 390.43,1774.75 1369.09,1774.75l782.95 0 240.87 -1054.71 -782.95 0c-397.23,0 -646.49,-322.75 -555.2,-720.03 90.79,-397.21 487.52,-720.44 884.74,-720.44l2123.17 0 240.88 -1054.81 -2122.66 0c-978.67,0 -1957.32,796.59 -2180.89,1775.24z"/>
		</g>
    </symbol>
    <symbol id="fuel" viewBox="0 -1 512.12542 512">
        <g id="fuel">
            <path d="m10.320312 49.855469 136.550782 40.226562c4.238281 1.242188 8.175781 3.347657 11.5625 6.179688l41.519531 34.589843 34.945313-37.488281-57.382813-46.625c-1.445313-1.175781-3.113281-2.054687-4.898437-2.578125l-147.804688-43.523437c-3.578125-1.054688-7.429688-.6445315-10.707031 1.140625-3.277344 1.785156-5.710938 4.796875-6.765625 8.378906l-6.527344 22.246094c-2.1875 7.441406 2.066406 15.253906 9.507812 17.453125zm0 0"/>
			<path d="m216.886719 144.949219c1.621093 1.351562 2.726562 3.222656 3.125 5.292969l63.535156 330.230468c2.140625 11.144532 9.242187 20.703125 19.296875 25.96875 10.050781 5.265625 21.953125 5.660156 32.332031 1.078125l95.003907-41.976562c2.257812-.996094 4.828124-1.039063 7.117187-.113281 2.289063.925781 4.109375 2.734374 5.042969 5.023437 1.222656 2.996094 3.589844 5.386719 6.574218 6.636719 2.988282 1.253906 6.347657 1.265625 9.34375.039062l46.289063-18.992187c6.234375-2.550781 9.21875-9.675781 6.664063-15.90625l-86.40625-210.84375c-1.308594-3.191407-.707032-6.847657 1.554687-9.453125l9.925781-11.464844c5.070313-5.871094 4.433594-14.738281-1.425781-19.824219l-96.417969-83.539062c-2.828125-2.4375-6.507812-3.652344-10.230468-3.375-3.722657.277343-7.183594 2.019531-9.621094 4.847656l-21.464844 24.832031c-3.265625 3.789063-8.96875 4.253906-12.800781 1.042969l-35.308594-29.421875-35.027344 37.558594zm117.027343 333.230469c-5.910156 2.601562-12.695312 2.304687-18.355468-.804688s-9.550782-8.675781-10.527344-15.058594l-21.394531-141.347656c-1.636719-10.71875.769531-21.664062 6.757812-30.703125l23.835938 18.835937c9.34375 7.289063 16.316406 17.191407 20.03125 28.449219l41.144531 122.304688zm-14.628906-207.039063 13.714844-2.460937c21.414062-3.71875 42.351562 8.6875 49.371094 29.257812l43.886718 130.386719c1.515626 4.484375-.644531 9.378906-4.972656 11.289062l-29.03125 12.828125-40.628906-120.640625c-4.835938-14.671875-13.925781-27.570312-26.113281-37.0625l-22.035157-17.457031c4.839844-3.054688 10.226563-5.140625 15.863282-6.140625zm-49.835937-64.09375 12.953125 54.859375c1.144531 4.90625-1.902344 9.816406-6.808594 10.96875-.691406.167969-1.394531.25-2.105469.246094-4.238281 0-7.921875-2.914063-8.894531-7.039063l-12.957031-54.855469c-.75-3.183593.253906-6.523437 2.632812-8.765624 2.378907-2.238282 5.773438-3.042969 8.90625-2.101563 3.128907.941406 5.519531 3.480469 6.273438 6.660156zm-25.601563-54.757813c4.890625-1.246093 9.867188 1.703126 11.117188 6.59375l4.574218 17.910157c1.246094 4.894531-1.710937 9.871093-6.601562 11.117187-.742188.195313-1.503906.289063-2.269531.285156-4.171875-.003906-7.816407-2.832031-8.847657-6.875l-4.554687-17.882812c-.609375-2.355469-.253906-4.851562.984375-6.945312 1.242188-2.089844 3.261719-3.601563 5.617188-4.203126zm0 0"/>
			<path d="m45.742188 277.722656c12.246093.421875 24.121093-4.257812 32.789062-12.925781 8.667969-8.664063 13.347656-20.539063 12.921875-32.789063 0-21.15625-29.59375-68.25-45.710937-86.859374-16.109376 18.597656-45.7148442 65.691406-45.7148442 86.859374-.4257818 12.25 4.2578122 24.125 12.9218752 32.789063 8.667969 8.667969 20.542969 13.347656 32.792969 12.925781zm0 0"/>
        </g>
    </symbol>
    <symbol id="steering-wheel" viewBox="0 0 512 512">
        <g id="steering-wheel">
            <path d="M437.02,74.981C388.668,26.628,324.38,0,256,0S123.333,26.628,74.98,74.981C26.628,123.333,0,187.62,0,256
			s26.628,132.667,74.98,181.019C123.333,485.372,187.62,512,256,512s132.667-26.628,181.02-74.981
			C485.372,388.668,512,324.38,512,256S485.372,123.333,437.02,74.981z M256,57.263c100.782,0,184.276,75.409,197.04,172.765
			L329.849,218.03c-13.813-26.755-41.72-45.102-73.849-45.102s-60.036,18.347-73.849,45.102L58.96,230.028
			C71.724,132.672,155.218,57.263,256,57.263z M58.889,281.375l121.731,9.484c7.69,16.55,20.669,30.166,36.76,38.655l7.978,122.859
			C138.513,438.875,70.099,368.943,58.889,281.375z M256,281.809c-14.232,0-25.809-11.578-25.809-25.809S241.77,230.191,256,230.191
			S281.809,241.77,281.809,256S270.232,281.809,256,281.809z M286.644,452.373l7.978-122.859
			c16.091-8.488,29.069-22.105,36.76-38.655l121.731-9.484C441.901,368.943,373.487,438.875,286.644,452.373z"/>
        </g>
    </symbol>
    <symbol id="graph" viewBox="0 0 32.001 32.002">
        <g id="graph">
            <path d="M31.834,1.553c0.306-0.461,0.179-1.08-0.282-1.386c-0.462-0.305-1.08-0.179-1.386,0.283l-3.699,5.599
				C26.313,6.024,26.16,6.001,26,6.001c-1.652,0-3,1.347-3,3c0,0.318,0.063,0.619,0.155,0.907l-3.572,4.555
				c-0.461-0.288-1-0.462-1.582-0.462c-1.613,0-2.924,1.283-2.988,2.88l-5.651,3.291C8.812,19.466,7.963,19.001,7,19.001
				c-1.654,0-3,1.347-3,3c0,0.65,0.214,1.25,0.566,1.742l-4.402,6.709c-0.303,0.463-0.175,1.082,0.287,1.385
				c0.169,0.111,0.36,0.164,0.548,0.164c0.326,0,0.646-0.158,0.837-0.451l4.375-6.666C6.464,24.952,6.727,25.001,7,25.001
				c1.613,0,2.924-1.281,2.988-2.881l5.651-3.289c0.549,0.707,1.398,1.17,2.361,1.17c1.654,0,3-1.346,3-3
				c0-0.317-0.062-0.619-0.153-0.906l3.57-4.554c0.461,0.287,1,0.461,1.582,0.461c1.653,0,3-1.346,3-3
				c0-0.767-0.298-1.459-0.771-1.99L31.834,1.553z M7,23.001c-0.552,0-1-0.447-1-1c0-0.551,0.448-1,1-1s1,0.449,1,1
				C8,22.554,7.552,23.001,7,23.001z M18,18.001c-0.552,0-1-0.447-1-1c0-0.551,0.448-1,1-1s1,0.449,1,1
				C19,17.554,18.552,18.001,18,18.001z M26,10.001c-0.552,0-1-0.448-1-1c0-0.551,0.448-1,1-1s1,0.449,1,1
				C27,9.553,26.551,10.001,26,10.001z "/>
        </g>
    </symbol>
    <symbol id="fuel(1)" viewBox="0 0 512 512">
        <g id="fuel(1)">
            <path d="M390.244,41H276.469a32.539,32.539,0,0,0-29.462,17.967l-22.245,44.248A6.925,6.925,0,0,1,218.5,107H161.87l-21.489,25.874L119,158.62V425.145A45.962,45.962,0,0,0,165.248,471H376.931A45.81,45.81,0,0,0,423,425.145V73.542A32.483,32.483,0,0,0,390.244,41ZM359.929,394.889a7,7,0,0,1-9.9,9.9l-79.605-79.606-79.607,79.606a7,7,0,0,1-9.9-9.9l79.606-79.606-81.015-81.014a7,7,0,0,1,9.9-9.9l81.016,81.015,81.014-81.015a7,7,0,1,1,9.9,9.9l-81.015,81.014ZM387,109.488c0,3.866-2.416,6.512-6.282,6.512H267.062a6.736,6.736,0,0,1-5.871-2.885,6.42,6.42,0,0,1-.524-6.357l16-35.836a6.794,6.794,0,0,1,6.4-3.922h97.656c3.866,0,6.282,2.67,6.282,6.536Z"/>
			<polygon points="148.75 101.044 126.187 82.09 88.553 127.252 111.116 146.205 136.411 115.851 148.75 101.044"/>
        </g>
    </symbol>
    <symbol id="speed" viewBox="0 0 2472.26 2472.26">
        <g id="speed">
			<path class="fil0" d="M1926.32 1986.31c-51.31,47.22 -106.29,88.18 -163.91,122.98 -308.14,-267.21 -736.34,-267.21 -1052.84,0 -57.62,-34.8 -112.6,-75.75 -163.91,-122.98 390.18,-359.1 990.48,-359.1 1380.66,0z"/>
			<path class="fil0" d="M1319.84 1381.2c-67.89,62.72 -182.42,18.83 -228.78,-61.36 -46.36,-80.16 -27.27,-201.25 61.36,-228.78l721.55 -223.07 -554.13 513.21zm0 0z"/>
			<path class="fil1" d="M1236.13 0c-682.69,0 -1236.13,553.44 -1236.13,1236.13 0,682.69 553.44,1236.13 1236.13,1236.13 682.69,0 1236.13,-553.44 1236.13,-1236.13 -1.19,-682.2 -553.93,-1234.94 -1236.13,-1236.13zm0 2255.47c-546.59,-1.13 -995.48,-432.31 -1018.52,-978.44l109.09 0c22.56,0 40.9,-18.32 40.9,-40.9 0,-22.58 -18.32,-40.9 -40.9,-40.9l-109.09 0c5.94,-151.17 45.75,-299.05 116.44,-432.78l95.44 54.54c19.58,11.3 44.61,4.58 55.91,-15 11.29,-19.57 4.59,-44.61 -15,-55.9l-94.89 -54.54c80.65,-127.23 188.26,-235.22 315.24,-316.32l54.53 94.89c11.29,19.57 36.32,26.29 55.9,15 19.59,-11.29 26.29,-36.33 15,-55.9l-54.55 -94.89c133.96,-70.9 282.14,-110.81 433.6,-116.72l0 109.09c-0.77,22.56 16.93,41.48 39.51,42.24 0.46,0.01 0.92,0.01 1.39,0.01 22.57,0 40.9,-18.32 40.9,-40.9l0 -109.07c151.15,5.93 299.03,45.75 432.76,116.44l-54.53 95.45c-11.29,19.57 -4.59,44.61 14.99,55.9 19.59,11.29 44.63,4.57 55.92,-15l54.52 -94.91c127.12,80.27 235.08,187.41 316.34,313.89l-94.9 54.53c-19.58,11.29 -26.3,36.32 -15,55.9 11.29,19.59 36.32,26.29 55.9,15l94.9 -54.53c70.69,133.71 110.5,281.61 116.44,432.76l-109.07 0c-22.58,0 -40.92,18.32 -40.92,40.9 0,22.59 18.34,40.92 40.92,40.92l109.07 0c-22.46,546.41 -471.35,978.23 -1018.24,979.5 0,0 0,-0.26 0,-0.26zm0 0z"/>
        </g>
    </symbol>
    <symbol id="medical-stethoscope-variant" viewBox="0 0 291.734 291.734">
        <g id="medical-stethoscope-variant">
            <path d="M59.294,152.691c0.531,5.888,3.845,11.428,9.391,14.534c4.604,2.579,9.349,4.475,14.196,5.759
			c-2.731,9.217-7.749,22.556-16.681,36.842c-8.484,13.577-8.585,29.961-0.267,44.957c12.254,22.1,39.312,36.951,67.341,36.951
			c19.25,0,36.364-8.865,48.185-24.964c16.896-23.017,20.64-56.985,10.009-90.846c-9.854-31.389,3.325-48.135,12.045-55.333
			c7.109,6.851,16.751,11.076,27.408,11.076c21.836,0,39.55-17.709,39.55-39.556s-17.714-39.551-39.55-39.551
			c-21.847,0-39.551,17.709-39.551,39.551c0,3.076,0.383,6.053,1.046,8.927c-16.467,12.045-35.476,39.157-22.173,81.546
			c8.389,26.729,5.815,53.939-6.727,71.018c-5.317,7.249-14.887,15.887-30.248,15.887c-19.874,0-39.566-10.486-47.882-25.492
			c-3.068-5.535-5.608-13.919-0.318-22.385c11.814-18.911,17.727-36.558,20.531-47.344c6.566-0.989,12.977-3.107,19.144-6.4
			c5.497-2.936,8.87-8.249,9.613-13.991c26.131-23.623,38.196-66.187,38.89-68.678c1.409-5.11-0.999-10.356-5.488-12.748
			c3.609-31.954-8.218-48.059-15.354-54.619c0.544-3.07-0.684-6.354-3.381-8.114L135.91,1.148c-3.425-2.237-7.731-1.108-9.608,2.537
			l-6.248,12.075c-1.882,3.646-0.223,7.534,3.708,8.694l14.825,4.37c3.759,1.108,8.262-0.688,10.39-3.982
			c5.908,6.224,14.416,20.081,11.485,46.515c-4.029,0.767-7.482,3.702-8.652,7.922c-3.562,12.785-13.85,39.193-29.125,55.028
			c-4.862-1.879-10.452-1.786-15.41,0.854c-3.229,1.725-6.387,2.594-9.628,2.662h-0.668c-3.415-0.073-6.75-1.036-10.165-2.946
			c-4.836-2.713-10.344-2.952-15.201-1.238C56.68,117.739,46.611,91.89,43.108,79.281c-1.173-4.209-4.64-7.151-8.655-7.917
			c-2.936-26.434,5.569-40.291,11.485-46.515c2.13,3.293,6.628,5.09,10.387,3.981l14.825-4.37c3.925-1.16,5.595-5.054,3.708-8.694
			L68.615,3.69c-1.882-3.646-6.188-4.774-9.608-2.537L45.881,9.729c-2.695,1.76-3.92,5.043-3.379,8.114
			c-7.125,6.561-18.962,22.659-15.351,54.618c-4.492,2.393-6.892,7.638-5.489,12.754C22.344,87.654,34.046,128.861,59.294,152.691z
			 M230.921,76.661c8.522,0,15.445,6.913,15.445,15.452c0,8.533-6.923,15.451-15.445,15.451c-8.534,0-15.452-6.918-15.452-15.451
			C215.469,83.573,222.382,76.661,230.921,76.661z"/>
        </g>
    </symbol>
    <symbol id="graph2" viewBox="0 0 14970.81 14596.03">
        <g id="graph2">
            <path class="fil0" d="M562.31 13762.64l-5.03 5.32 -251.49 272.1c-124.11,134.29 -115.93,343.82 18.36,467.97 67.19,61.99 153.18,91.03 237.79,87.71 84.69,-3.39 168.11,-39.01 230.18,-106.12l205.16 -222.01 1.19 0 41.96 -46.7 3.19 -3.43 7.97 -8.96 1752.24 -1949.67c158.54,84.07 339.12,131.88 530.74,131.88 441.11,0 824.06,-252.63 1012.54,-620.58l1844.66 465.81c48.78,582.35 538.06,1041.41 1132.88,1041.41 627,0 1137.14,-510.13 1137.14,-1137.18 0,-345.79 -155.31,-655.83 -399.64,-864.55l1504.31 -3595.31 1071.26 2731.74c-256.07,208.76 -419.97,526.37 -419.97,881.68 0,627.04 510.17,1137.18 1137.22,1137.18 627.04,0 1137.18,-510.13 1137.18,-1137.18 0,-128.08 -21.63,-251.2 -60.89,-366.19l1314 -1314.08c129.34,-129.34 129.34,-339 0,-468.34 -129.3,-129.26 -338.96,-129.26 -468.26,0l-1239.61 1239.61c-190.23,-143.21 -426.63,-228.18 -682.54,-228.18 -35.13,0 -69.84,1.8 -104.19,4.95l-1317.15 -3358.78 1323.2 -3162.46c32.39,2.78 65.02,4.5 98.1,4.5 526.57,0 970.5,-359.73 1099.35,-846.35l2084.62 0c182.87,0 331.15,-148.28 331.15,-331.15 0,-182.83 -148.28,-331.11 -331.15,-331.11l-2109.31 0c-154.33,-445.16 -577.57,-765.79 -1074.61,-765.79 -627.04,0 -1137.18,510.13 -1137.18,1137.22 0,357.48 165.94,676.73 424.67,885.4l-1056.13 2524.05 -1542.75 -3934.1c231.78,-208.31 377.93,-510.26 377.93,-845.74 0,-627.09 -510.17,-1137.22 -1137.22,-1137.22 -627.04,0 -1137.1,510.13 -1137.1,1137.22 0,271.28 95.65,520.6 254.76,716.27l-2729.74 4135.95c-118.3,-41.79 -245.44,-64.81 -377.89,-64.81 -135.84,0 -266.17,24.04 -387.05,67.92l-1781.03 -2334.63c-9.32,-18.24 -20.41,-35.86 -33.41,-52.63l-226.95 -292.87c-8.01,-10.35 -16.52,-20.04 -25.44,-29.16 -6.22,-10.14 -13.04,-20 -20.49,-29.61l-226.95 -292.87c-112.05,-144.51 -320.07,-170.89 -464.62,-58.89 -72.26,56.06 -114.99,136.05 -125.62,220.08 -10.67,84.07 10.75,172.24 66.74,244.5l226.99 292.87c7.97,10.3 16.44,19.96 25.35,29.03 6.22,10.14 13.09,20.08 20.53,29.69l174.61 225.32 0 0.08 1860.61 2446.72c-138.38,188.35 -220.41,420.66 -220.41,671.78 0,627.04 510.13,1137.18 1137.18,1137.18 627.04,0 1137.22,-510.09 1137.22,-1137.18 0,-254.27 -83.91,-489.28 -225.48,-678.9l2744.62 -4158.56c105.58,32.47 217.63,50.05 333.68,50.05 53.57,0 106.24,-4.01 157.84,-11.2l1777.02 4531.38 -1764.06 4215.97c-42.86,-4.91 -86.36,-7.73 -130.53,-7.73 -426.75,0 -799.2,236.44 -993.65,585.09l-1867.76 -471.69c-67.96,-562.56 -548.04,-1000.11 -1128.63,-1000.11 -627.04,0 -1137.18,510.13 -1137.18,1137.18 0,194.65 49.19,377.97 135.76,538.35l-1770.81 1970.32 0 0.53zm10792.71 -2943.77c261.83,0 474.93,213.05 474.93,474.97 0,261.83 -213.05,474.93 -474.93,474.93 -261.92,0 -474.97,-213.05 -474.97,-474.93 -0.04,-261.92 213.05,-474.97 474.97,-474.97zm-0.04 -8786.15c261.92,0 474.93,213.05 474.93,474.97 0,261.88 -213.05,474.97 -474.93,474.97 -261.88,0 -474.97,-213.09 -474.97,-474.97 0,-261.92 213.09,-474.97 474.97,-474.97zm-8020.4 9695.77c-261.88,0 -474.93,-213.09 -474.93,-474.97 0,-261.88 213.05,-474.97 474.93,-474.97 261.88,0 474.93,213.09 474.93,474.97 0,261.92 -213.05,474.97 -474.93,474.97zm3990.04 886.67c-261.88,0 -474.93,-213.09 -474.93,-474.93 0,-261.92 213.09,-474.97 474.93,-474.97 261.88,0 474.93,213.05 474.93,474.97 0,261.83 -213.05,474.93 -474.93,474.93zm-40.28 -11952.74c261.88,0 474.97,213.05 474.97,474.97 0,261.88 -213.09,474.97 -474.97,474.97 -261.88,0 -474.93,-213.09 -474.93,-474.97 0,-261.92 213.01,-474.97 474.93,-474.97zm-3990.12 5924.62c261.96,0 474.97,213.05 474.97,474.93 0,261.92 -213.05,475.01 -474.97,475.01 -261.88,0 -474.93,-213.09 -474.93,-475.01 0.04,-261.83 213.09,-474.93 474.93,-474.93zm11579.64 1389.44c-129.3,-129.3 -339,-129.3 -468.3,0l-262 262c-129.3,129.34 -129.3,338.96 0,468.3 64.69,64.65 149.42,97 234.15,97 84.73,0 169.5,-32.35 234.15,-97l262 -262c129.26,-129.34 129.26,-338.96 0,-468.3z"/>
        </g>
    </symbol>
    <symbol id="gt-logo" viewBox="0 0 18036.28 2716.44">
        <g id="gt-logo">
			<path d="M4693.39 605.22c-582.04,0 -1055.61,473.56 -1055.61,1055.61l0 0.57c0,582.04 473.56,1055.04 1055.61,1055.04 582.04,0 1055.03,-472.99 1055.03,-1055.04l0 -0.57c0,-582.05 -472.99,-1055.61 -1055.03,-1055.61zm557.19 1056.18l0 0c0,307.42 -249.79,557.18 -557.19,557.18 -307.42,0 -557.18,-249.77 -557.18,-557.18l0 -0.57c0,-307.42 249.77,-557.19 557.18,-557.19 307.4,0 557.19,249.77 557.19,557.19l0 0.57z"/>
			<path d="M2542.46 605.44c-305.1,0 -578.51,136.12 -764.5,350.08 -185.99,-213.97 -459.4,-350.08 -764.51,-350.08 -558.87,0 -1013.45,454.59 -1013.45,1013.45l0 0.32 0 248.78 0 803.59 498.21 0 0 -803.59 0 -248.78 0 -0.32c0,-284.13 231.1,-515.24 515.24,-515.24 284.13,0 515.41,231.1 515.41,515.24l0 249.1 0 803.59 498.21 0 0 -803.59 0 -249.1c0,-284.13 231.26,-515.24 515.4,-515.24 284.13,0 515.24,231.1 515.24,515.24l0 0.32 0 248.78 0 803.59 498.21 0 0 -803.59 0 -248.78 0 -0.32c0,-558.87 -454.59,-1013.45 -1013.45,-1013.45z"/>
			<path d="M6845.42 605.44c-559.67,0 -1014.9,455.23 -1014.9,1014.75l0 0.32 0 248.78 0 802.29 498.21 0 0 -802.29 0 -248.78 0 -0.32c0,-284.79 231.76,-516.54 516.7,-516.54 284.95,0 516.7,231.75 516.7,516.54l0 0.32 0 248.78 0 802.29 498.21 0 0 -802.29 0 -248.78 0 -0.32c0,-559.52 -455.22,-1014.75 -1014.9,-1014.75z"/>
			<path d="M8440.55 1142.07l0 530.64c0,293.85 203.99,497.86 497.86,497.86l249.2 0 0 498.4 -249.2 0c-481.46,0 -861.77,-307.4 -966.33,-747.05 -19.79,-77.97 -29.95,-162.74 -29.95,-249.2l0 -1672.7 498.42 0 0 644.22 747.06 0 0 497.85 -747.06 0z"/>
			<path d="M11165.46 2233.85l-21.47 -19.78 -332.29 -333.98 -167.83 169.53 -3.39 3.39 -1.7 1.7c-64.98,64.42 -141.27,109.63 -222.64,134.48 -111.32,38.43 -231.12,38.43 -344.13,1.7l172.91 -172.92 350.36 -354.31 179.71 -179.14 372.4 -374.1c-43.52,-71.2 -94.94,-137.89 -156.54,-197.79 -61.03,-61.6 -126.01,-113.02 -197.78,-154.27l-1.69 0c-333.99,-206.26 -759.48,-206.26 -1095.16,0 -71.2,41.25 -137.88,92.67 -199.49,154.27 -59.9,59.89 -113.01,126.58 -155.96,197.79 -100.01,164.45 -153.15,352.62 -153.15,550.4 0,199.48 54.82,388.79 156.54,553.24 42.95,70.07 94.38,134.49 152.57,192.7 63.3,63.28 131.68,116.4 204.57,156.52 166.14,102.85 355.46,152.58 543.62,152.58 187.61,0 375.23,-49.73 541.94,-152.58 72.9,-40.13 141.27,-93.24 203.99,-156.52l174.62 -172.92zm-1449.47 -393.87l0 0c-19.78,-56.51 -29.95,-118.11 -29.95,-179.14 0,-59.89 10.17,-119.8 28.26,-174.62 27.12,-81.36 71.76,-158.23 135.05,-220.95 63.3,-63.3 137.89,-108.51 217.57,-133.37 116.41,-39.56 241.3,-39.56 353.75,0l-175.75 178.01 -352.62 353.76 -176.31 176.31z"/>
		</g>
			<polygon points="18036.28,47.55 17858.11,826.07 16977.38,826.07 16552.87,2682.82 15774.38,2682.82 16198.87,826.07 15318.13,826.07 15495.91,47.55 "/>
			<path class="fil0" d="M15305.35 47.55l-177.78 778.52 -1567.07 0c-293.19,0 -586,238.59 -653,531.76 -67.39,293.22 116.58,531.43 409.77,531.43l577.87 0 -177.78 778.47 -577.87 0c-722.33,0 -1175.49,-587.54 -1010.49,-1309.9 164.99,-722.31 887.33,-1310.28 1609.67,-1310.28l1566.68 0z"/>
			<polygon points="14256.12,1143.26 14255.97,1143.89 13750.79,1143.89 13649.64,1586.49 14154.63,1586.49 14085.31,1889.27 14085.7,1889.27 13907.94,2667.73 14685.65,2667.73 14932.88,1586.49 14932.93,1586.49 15034.23,1143.89 15034.08,1143.89 15034.23,1143.26 "/>
    </symbol>
    <symbol id="arrow-right" viewBox="0 0 451.846 451.847">
        <g id="arrow-right">
            <path d="M345.441,248.292L151.154,442.573c-12.359,12.365-32.397,12.365-44.75,0c-12.354-12.354-12.354-32.391,0-44.744   L278.318,225.92L106.409,54.017c-12.354-12.359-12.354-32.394,0-44.748c12.354-12.359,32.391-12.359,44.75,0l194.287,194.284   c6.177,6.18,9.262,14.271,9.262,22.366C354.708,234.018,351.617,242.115,345.441,248.292z"/>
        </g>
    </symbol>
    <symbol id="check-symbol" viewBox="0 0 448.8 448.8">
        <g id="check-symbol">
           <polygon points="142.8,323.85 35.7,216.75 0,252.45 142.8,395.25 448.8,89.25 413.1,53.55 		"/>
        </g>
    </symbol>
    <symbol id="light" viewBox="0 0 508.928 508.928">
        <g id="light">
           <polygon points="403.712,201.04 256.288,201.04 329.792,0 105.216,307.888 252.64,307.888 179.136,508.928 	"/>
        </g>
    </symbol>
    <symbol id="instagram-logo" viewBox="0 0 49.652 49.652">
        <g id="instagram-logo">
			<path d="M24.825,29.796c2.739,0,4.972-2.229,4.972-4.97c0-1.082-0.354-2.081-0.94-2.897c-0.903-1.252-2.371-2.073-4.029-2.073     c-1.659,0-3.126,0.82-4.031,2.072c-0.588,0.816-0.939,1.815-0.94,2.897C19.854,27.566,22.085,29.796,24.825,29.796z" />
			<polygon points="35.678,18.746 35.678,14.58 35.678,13.96 35.055,13.962 30.891,13.975 30.907,18.762    " />
			<path d="M24.826,0C11.137,0,0,11.137,0,24.826c0,13.688,11.137,24.826,24.826,24.826c13.688,0,24.826-11.138,24.826-24.826     C49.652,11.137,38.516,0,24.826,0z M38.945,21.929v11.56c0,3.011-2.448,5.458-5.457,5.458H16.164     c-3.01,0-5.457-2.447-5.457-5.458v-11.56v-5.764c0-3.01,2.447-5.457,5.457-5.457h17.323c3.01,0,5.458,2.447,5.458,5.457V21.929z" />
			<path d="M32.549,24.826c0,4.257-3.464,7.723-7.723,7.723c-4.259,0-7.722-3.466-7.722-7.723c0-1.024,0.204-2.003,0.568-2.897     h-4.215v11.56c0,1.494,1.213,2.704,2.706,2.704h17.323c1.491,0,2.706-1.21,2.706-2.704v-11.56h-4.217     C32.342,22.823,32.549,23.802,32.549,24.826z" />
        </g>
    </symbol>
    <symbol id="facebook-logo" viewBox="0 0 49.652 49.652">
        <g id="facebook-logo">
           <path d="M24.826,0C11.137,0,0,11.137,0,24.826c0,13.688,11.137,24.826,24.826,24.826c13.688,0,24.826-11.138,24.826-24.826    C49.652,11.137,38.516,0,24.826,0z M31,25.7h-4.039c0,6.453,0,14.396,0,14.396h-5.985c0,0,0-7.866,0-14.396h-2.845v-5.088h2.845    v-3.291c0-2.357,1.12-6.04,6.04-6.04l4.435,0.017v4.939c0,0-2.695,0-3.219,0c-0.524,0-1.269,0.262-1.269,1.386v2.99h4.56L31,25.7z    "/>
        </g>
    </symbol>
    <symbol id="youtube-logotype" viewBox="0 0 97.75 97.75">
        <g id="youtube-logotype">
           <polygon points="25.676,52.482 29.551,52.482 29.551,73.455 33.217,73.455 33.217,52.482 37.164,52.482 37.164,49.047     25.676,49.047   " />
			<path d="M56.674,55.046c-1.212,0-2.343,0.662-3.406,1.972v-7.972h-3.295v24.409h3.295v-1.762c1.103,1.361,2.233,2.013,3.406,2.013    c1.311,0,2.193-0.69,2.633-2.044c0.221-0.771,0.334-1.982,0.334-3.665v-7.242c0-1.722-0.113-2.924-0.334-3.655    C58.868,55.736,57.984,55.046,56.674,55.046z M56.344,68.255c0,1.644-0.482,2.454-1.434,2.454c-0.541,0-1.092-0.259-1.643-0.811    V58.814c0.551-0.545,1.102-0.803,1.643-0.803c0.951,0,1.434,0.842,1.434,2.482V68.255z"/>
			<path d="M43.824,69.167c-0.731,1.033-1.422,1.542-2.084,1.542c-0.44,0-0.691-0.259-0.771-0.771c-0.03-0.106-0.03-0.508-0.03-1.28    v-13.39h-3.296v14.379c0,1.285,0.111,2.153,0.291,2.705c0.331,0.922,1.063,1.354,2.123,1.354c1.213,0,2.457-0.732,3.767-2.234    v1.984h3.298V55.268h-3.298V69.167z"/>
			<path d="M46.653,38.466c1.073,0,1.588-0.851,1.588-2.551v-7.731c0-1.701-0.515-2.548-1.588-2.548c-1.074,0-1.59,0.848-1.59,2.548    v7.731C45.063,37.616,45.579,38.466,46.653,38.466z"/>
			<path d="M48.875,0C21.882,0,0,21.882,0,48.875S21.882,97.75,48.875,97.75S97.75,75.868,97.75,48.875S75.868,0,48.875,0z     M54.311,22.86h3.321v13.532c0,0.781,0,1.186,0.04,1.295c0.073,0.516,0.335,0.78,0.781,0.78c0.666,0,1.365-0.516,2.104-1.559    V22.86h3.33v18.379h-3.33v-2.004c-1.326,1.52-2.59,2.257-3.805,2.257c-1.072,0-1.812-0.435-2.146-1.365    c-0.184-0.557-0.295-1.436-0.295-2.733V22.86L54.311,22.86z M41.733,28.853c0-1.965,0.334-3.401,1.042-4.33    c0.921-1.257,2.218-1.885,3.878-1.885c1.668,0,2.964,0.628,3.885,1.885c0.698,0.928,1.032,2.365,1.032,4.33v6.436    c0,1.954-0.334,3.403-1.032,4.322c-0.921,1.254-2.217,1.881-3.885,1.881c-1.66,0-2.957-0.627-3.878-1.881    c-0.708-0.919-1.042-2.369-1.042-4.322V28.853z M32.827,16.576l2.622,9.685l2.519-9.685h3.735L37.26,31.251v9.989h-3.692v-9.989    c-0.335-1.77-1.074-4.363-2.259-7.803c-0.778-2.289-1.589-4.585-2.367-6.872H32.827z M75.186,75.061    c-0.668,2.899-3.039,5.039-5.894,5.358c-6.763,0.755-13.604,0.759-20.42,0.755c-6.813,0.004-13.658,0-20.419-0.755    c-2.855-0.319-5.227-2.458-5.893-5.358c-0.951-4.129-0.951-8.638-0.951-12.89s0.012-8.76,0.962-12.89    c0.667-2.9,3.037-5.04,5.892-5.358c6.762-0.755,13.606-0.759,20.421-0.755c6.813-0.004,13.657,0,20.419,0.755    c2.855,0.319,5.227,2.458,5.896,5.358c0.948,4.13,0.942,8.638,0.942,12.89S76.137,70.932,75.186,75.061z"/>
			<path d="M67.17,55.046c-1.686,0-2.995,0.619-3.947,1.864c-0.699,0.92-1.018,2.342-1.018,4.285v6.371    c0,1.933,0.357,3.365,1.059,4.276c0.951,1.242,2.264,1.863,3.988,1.863c1.721,0,3.072-0.651,3.984-1.972    c0.4-0.584,0.66-1.245,0.77-1.975c0.031-0.33,0.07-1.061,0.07-2.124v-0.479h-3.361c0,1.32-0.043,2.053-0.072,2.232    c-0.188,0.881-0.662,1.321-1.473,1.321c-1.132,0-1.686-0.84-1.686-2.522v-3.226h6.592v-3.767c0-1.943-0.329-3.365-1.02-4.285    C70.135,55.666,68.824,55.046,67.17,55.046z M68.782,62.218h-3.296v-1.683c0-1.682,0.553-2.523,1.654-2.523    c1.09,0,1.642,0.842,1.642,2.523V62.218z"/>
        </g>
    </symbol>
    <symbol id="box" viewBox="0 0 473.8 473.8">
        <g id="box">
            <path d="M454.8,111.7c0-1.8-0.4-3.6-1.2-5.3c-1.6-3.4-4.7-5.7-8.1-6.4L241.8,1.2c-3.3-1.6-7.2-1.6-10.5,0L25.6,100.9
		c-4,1.9-6.6,5.9-6.8,10.4v0.1c0,0.1,0,0.2,0,0.4V362c0,4.6,2.6,8.8,6.8,10.8l205.7,99.7c0.1,0,0.1,0,0.2,0.1
		c0.3,0.1,0.6,0.2,0.9,0.4c0.1,0,0.2,0.1,0.4,0.1c0.3,0.1,0.6,0.2,0.9,0.3c0.1,0,0.2,0.1,0.3,0.1c0.3,0.1,0.7,0.1,1,0.2
		c0.1,0,0.2,0,0.3,0c0.4,0,0.9,0.1,1.3,0.1c0.4,0,0.9,0,1.3-0.1c0.1,0,0.2,0,0.3,0c0.3,0,0.7-0.1,1-0.2c0.1,0,0.2-0.1,0.3-0.1
		c0.3-0.1,0.6-0.2,0.9-0.3c0.1,0,0.2-0.1,0.4-0.1c0.3-0.1,0.6-0.2,0.9-0.4c0.1,0,0.1,0,0.2-0.1l206.3-100c4.1-2,6.8-6.2,6.8-10.8
		V112C454.8,111.9,454.8,111.8,454.8,111.7z M236.5,25.3l178.4,86.5l-65.7,31.9L170.8,57.2L236.5,25.3z M236.5,198.3L58.1,111.8
		l85.2-41.3L321.7,157L236.5,198.3z M42.8,131.1l181.7,88.1v223.3L42.8,354.4V131.1z M248.5,442.5V219.2l85.3-41.4v58.4
		c0,6.6,5.4,12,12,12s12-5.4,12-12v-70.1l73-35.4V354L248.5,442.5z"/>
        </g>
    </symbol>
    <symbol id="return" viewBox="0 0 512 512">
        <g id="return">
            <path d="M288.502,32.502c-108.328,0-198.827,77.485-219.166,179.899l-42.482-53.107L0,180.784l68.769,85.961
			c3.352,4.178,8.338,6.447,13.427,6.447c2.596,0,5.226-0.585,7.685-1.805l103.153-51.577l-15.387-30.757l-75.8,37.892
			c14.063-90.5,92.27-160.059,186.655-160.059c104.271,0,189.114,84.843,189.114,189.114s-84.843,189.114-189.114,189.114v34.384
			C411.735,479.498,512,379.233,512,256S411.735,32.502,288.502,32.502z"/>
        </g>
    </symbol>
    <symbol id="infinity" viewBox="0 0 492.308 492.308">
        <g id="infinity">
            <path d="M379.75,124.774c-3.01-0.226-6.019-0.332-8.289-0.308c-0.913-0.077-96.471-7.106-134.731,118.827
			c-33.442,110.082-110.913,105.197-115.01,104.889c-1.529,0-3.067-0.034-4.606-0.106c-54.625-2.423-97.423-47.192-97.423-101.923
			c0-56.26,45.769-102.034,102.029-102.034c34.875,0,66.981,17.538,85.885,46.918l16.558-10.654
			c-22.538-35.038-60.837-55.957-102.442-55.957C54.606,124.428,0,179.034,0,246.154c0,65.293,51.058,118.707,116.231,121.596
			c1.817,0.082,3.635,0.111,4.615,0.086c0.096,0.01,1.25,0.096,3.269,0.096c17.183,0,97.221-6.231,131.462-118.918
			c33.442-110.091,110.933-105.173,115.01-104.894c2.587,0,5.164,0.101,7.702,0.288c52.894,3.942,94.327,48.63,94.327,101.745
			c0,56.26-45.769,102.029-102.029,102.029c-34.875,0-66.971-17.538-85.875-46.918l-16.558,10.654
			c22.538,35.038,60.827,55.957,102.433,55.957c67.115,0,121.721-54.606,121.721-121.721
			C492.308,182.789,442.865,129.472,379.75,124.774z"/>
        </g>
    </symbol>
    <symbol id="bluetooth" viewBox="0 0 31.059 31.059">
        <g id="bluetooth">
			<path d="M14.067,16.417c-0.114,0-0.229-0.023-0.34-0.068c-0.331-0.137-0.548-0.46-0.548-0.819V0.888
				c0-0.359,0.217-0.683,0.548-0.82c0.333-0.138,0.714-0.061,0.967,0.192l7.321,7.321c0.347,0.347,0.347,0.908,0,1.255l-7.321,7.32
				C14.524,16.326,14.298,16.417,14.067,16.417z M14.955,3.029v10.357l5.179-5.179L14.955,3.029z"/>
			<path d="M9.67,21.179c-0.215,0-0.431-0.077-0.602-0.235c-0.359-0.332-0.382-0.895-0.05-1.254l4.396-4.762
				c0.333-0.36,0.894-0.383,1.254-0.051c0.36,0.333,0.383,0.894,0.051,1.254l-4.398,4.763C10.147,21.083,9.909,21.179,9.67,21.179z"
				/>
			<path d="M14.067,31.059c-0.114,0-0.229-0.023-0.34-0.067c-0.331-0.138-0.548-0.461-0.548-0.82V15.529
				c0-0.359,0.217-0.683,0.548-0.82c0.333-0.137,0.714-0.061,0.967,0.193l7.321,7.32c0.347,0.347,0.347,0.908,0,1.255l-7.321,7.321
				C14.524,30.969,14.298,31.059,14.067,31.059z M14.955,17.672v10.357l5.179-5.179L14.955,17.672z"/>
			<path d="M14.067,16.417c-0.239,0-0.477-0.097-0.652-0.286l-4.396-4.762c-0.332-0.36-0.31-0.922,0.05-1.254
				c0.361-0.333,0.922-0.311,1.254,0.05l4.398,4.763c0.332,0.359,0.31,0.921-0.051,1.254C14.498,16.339,14.283,16.417,14.067,16.417
				z"/>
        </g>
    </symbol>
    <symbol id="rocket" viewBox="0 0 512 512">
        <g id="rocket">
			<path d="m497 0h-58.082031c-29.546875 0-58.371094 5.734375-85.671875 17.039062-27.296875 11.308594-51.730469 27.636719-72.625 48.53125l-30.832032 30.828126h-90.1875c-3.980468 0-7.792968 1.582031-10.609374 4.394531l-96.398438 96.398437c-4.289062 4.292969-5.574219 10.742188-3.25 16.347656 2.320312 5.605469 7.789062 9.261719 13.855469 9.261719h90.1875l17.132812 17.132813-29.558593 29.558594c-2.8125 2.816406-4.394532 6.628906-4.394532 10.609374 0 3.976563 1.578125 7.792969 4.394532 10.605469l80.332031 80.332031c2.8125 2.8125 6.628906 4.394532 10.605469 4.394532 3.980468 0 7.792968-1.578125 10.605468-4.394532l29.5625-29.558593 17.132813 17.132812v90.1875c0 6.066407 3.652343 11.535157 9.261719 13.855469 1.851562.769531 3.804687 1.144531 5.734374 1.144531 3.902344 0 7.742188-1.523437 10.609376-4.394531l96.398437-96.398438c2.8125-2.8125 4.394531-6.628906 4.394531-10.605468v-90.1875l30.832032-30.832032c20.894531-20.894531 37.222656-45.328124 48.53125-72.628906 11.308593-27.296875 17.039062-56.121094 17.039062-85.667968v-58.085938c0-8.285156-6.714844-15-15-15zm-331.1875 126.398438h53.972656l-66.398437 66.402343h-53.972657zm66.085938 212.824218-59.117188-59.121094 18.953125-18.953124 59.117187 59.117187zm153.703124 6.964844-66.402343 66.398438v-53.972657l66.398437-66.398437v53.972656zm96.398438-273.101562c0 51.785156-20.164062 100.46875-56.78125 137.082031l-35.203125 35.203125c-.007813.007812-.015625.015625-.023437.023437l-85.792969 85.792969-123.386719-123.386719 121.019531-121.019531c36.617188-36.617188 85.304688-56.78125 137.085938-56.78125h43.082031zm0 0"/>
			<path d="m165.339844 347.664062c-.316406-.347656-.648438-.683593-1-1 0 0-3.242188-2.949218-8.210938-7.46875-34.371094-31.242187-87.019531-29.988281-119.859375 2.851563-.066406.066406-.132812.136719-.199219.203125-23.261718 23.363281-36.070312 54.371094-36.070312 87.351562v67.398438c0 8.285156 6.714844 15 15 15h67.398438c33.070312 0 64.160156-12.878906 87.542968-36.261719.070313-.066406.136719-.136719.203125-.207031 32.65625-32.851562 33.839844-85.355469 2.65625-119.664062zm-16.601563 106.851563c-.058593.058594-.121093.117187-.175781.175781-17.699219 17.613282-41.183594 27.308594-66.164062 27.308594h-52.398438v-52.398438c0-25.054687 9.757812-48.613281 27.476562-66.328124.054688-.058594.113282-.113282.167969-.171876 21.511719-21.34375 55.863281-22.109374 78.304688-1.707031 3.789062 3.441407 6.570312 5.972657 7.671875 6.976563l6.984375 7.683594c20.453125 22.496093 19.632812 56.960937-1.867188 78.460937zm0 0"/>
        </g>
    </symbol>
    <symbol id="pac" viewBox="0 0 2209.04 1140.29">
        <g id="pac">
            <path d="M53.3 524.68c0.96,37.17 106.52,391.06 178.2,471.41 36.11,40.48 75.75,76.59 123.77,99.54 107.79,51.53 237.1,44.31 393.7,44.31l884.9 0.29c122.38,-0.16 245.34,-38.43 324.2,-122.4 89.69,-95.49 169.36,-403.88 217.6,-555.38 6.92,-21.75 21.77,-55.81 24.74,-80.67 17.31,-51.05 6.14,-120.04 -11.84,-166.14 -20.69,-53.05 -44.14,-80.77 -80.4,-117.13 -82.83,-83.07 -143.45,-92.27 -302.83,-92.25 -263.38,0.02 -526.76,0 -790.14,0 -171.94,0 -653.52,-19.57 -779.67,10.47 -149.17,35.51 -253.61,187.68 -232.91,357.98 3.95,32.46 34.53,121.19 50.68,149.97zm1279.68 271.71c0,155.96 111.64,102.61 111.64,60.12 0,-80.17 14.06,-128.83 -60.12,-128.83 -27.82,0 -51.52,37.32 -51.52,68.7zm-876.03 -25.77c0,80.17 -14.06,128.83 60.12,128.83 60.31,0 86.64,-171.77 -17.18,-171.77 -20.02,0 -42.94,22.92 -42.94,42.94zm1176.62 0c0,80.17 -14.06,128.83 60.11,128.83 57.51,0 90.46,-171.77 -17.17,-171.77 -20.02,0 -42.94,22.92 -42.94,42.94zm-884.61 -480.94l0 68.7c0,54.38 111.64,74.69 111.64,-17.17 0,-169.18 -111.64,-118.53 -111.64,-51.53zm-292.01 -17.18l0 85.89c0,37.74 111.65,111.53 111.65,-60.12 0,-90.3 -111.65,-80.73 -111.65,-25.77zm1176.62 0l0 85.89c0,37.74 111.64,111.53 111.64,-60.12 0,-92.46 -111.64,-79.72 -111.64,-25.77zm-300.59 25.77c0,171.65 111.64,97.86 111.64,60.12 0,-71.24 15.32,-128.83 -60.12,-128.83 -27.82,0 -51.52,37.32 -51.52,68.7zm-292.01 0l0 42.95c0,91.86 111.65,71.55 111.65,17.17 0,-67.57 12.53,-128.83 -60.12,-128.83 -27.82,0 -51.53,37.32 -51.53,68.7zm-292 472.36c0,63.27 -14.04,128.83 51.53,128.83 67.5,0 60.11,-67.1 60.11,-111.64 0,-84.89 -111.64,-71.67 -111.64,-17.18zm292 17.18c0,68.01 -9.49,111.64 68.7,111.64 62.4,0 62.4,-171.77 0,-171.77 -41.84,0 -68.7,11.17 -68.7,60.12zm-669.9 -163.18l1434.27 0c31.13,0 47.94,-7.21 68.7,-17.17 7.01,-30.09 20.75,-94.47 -34.35,-94.47l-1485.81 0c-55.37,0 -78.55,111.64 17.17,111.64zm1717.69 -242.84l-138.5 422.12c-21.58,65.22 -17.42,65.82 -55.13,117.72 -1.11,1.53 -2.54,3.63 -3.65,5.12 -81.1,109.01 -199.63,92.96 -300.85,92.96 -189.02,0 -1087.09,11.08 -1143.87,-6.99 -99.64,-31.7 -154.25,-103.13 -186.35,-198.85 -16.46,-49.08 -29.97,-91.73 -47.18,-143.04 -13.45,-40.13 -31.67,-118.73 -48.27,-146.14 -17.29,-87 -78.54,-166.8 -38.04,-273.03 28.96,-75.96 99.17,-133.48 200.82,-134.13l1357.37 0.4c146.36,0 457.33,-46.34 403.66,263.87z"/>
        </g>
    </symbol>
    <symbol id="share" viewBox="0 0 481.6 481.6">
        <g id="share">
            <path d="M381.6,309.4c-27.7,0-52.4,13.2-68.2,33.6l-132.3-73.9c3.1-8.9,4.8-18.5,4.8-28.4c0-10-1.7-19.5-4.9-28.5l132.2-73.8
		c15.7,20.5,40.5,33.8,68.3,33.8c47.4,0,86.1-38.6,86.1-86.1S429,0,381.5,0s-86.1,38.6-86.1,86.1c0,10,1.7,19.6,4.9,28.5
		l-132.1,73.8c-15.7-20.6-40.5-33.8-68.3-33.8c-47.4,0-86.1,38.6-86.1,86.1s38.7,86.1,86.2,86.1c27.8,0,52.6-13.3,68.4-33.9
		l132.2,73.9c-3.2,9-5,18.7-5,28.7c0,47.4,38.6,86.1,86.1,86.1s86.1-38.6,86.1-86.1S429.1,309.4,381.6,309.4z M381.6,27.1
		c32.6,0,59.1,26.5,59.1,59.1s-26.5,59.1-59.1,59.1s-59.1-26.5-59.1-59.1S349.1,27.1,381.6,27.1z M100,299.8
		c-32.6,0-59.1-26.5-59.1-59.1s26.5-59.1,59.1-59.1s59.1,26.5,59.1,59.1S132.5,299.8,100,299.8z M381.6,454.5
		c-32.6,0-59.1-26.5-59.1-59.1c0-32.6,26.5-59.1,59.1-59.1s59.1,26.5,59.1,59.1C440.7,428,414.2,454.5,381.6,454.5z"/>
        </g>
    </symbol>
    <symbol id="meter" viewBox="0 0 295.82 295.82">
        <g id="meter">
            <path d="M158.119,137.51l-4.868-65.426c-1.093-14.691-2.295-17.177-5.341-17.177s-4.248,2.486-5.341,17.177
			l-4.868,65.426c-3.916,3.051-6.478,7.762-6.478,13.114c0,6.244,3.47,11.618,8.545,14.479l2.567,28.441
			c1.213,13.375,2.698,15.637,5.575,15.637s4.368-2.257,5.575-15.637l2.567-28.441c5.075-2.861,8.545-8.24,8.545-14.479
			C164.597,145.277,162.035,140.567,158.119,137.51z M147.91,73.601l4.536,61.043c-1.452-0.413-2.953-0.702-4.536-0.702
			s-3.084,0.294-4.536,0.702L147.91,73.601z M148.068,193.06c-0.054,0.587-0.109,1.142-0.158,1.675
			c-0.054-0.533-0.109-1.088-0.158-1.675l-2.35-25.999c0.821,0.125,1.648,0.25,2.507,0.25s1.681-0.125,2.507-0.25L148.068,193.06z"
			/>
		<path d="M147.91,33.836c-62.897,0-114.079,51.176-114.079,114.073S85.007,261.983,147.91,261.983
			s114.079-51.176,114.079-114.073S210.807,33.836,147.91,33.836z M147.91,251.105c-56.903,0-103.201-46.292-103.201-103.195
			S91.006,44.715,147.91,44.715S251.111,91.006,251.111,147.91S204.813,251.105,147.91,251.105z"/>
		<path d="M147.91,0C66.351,0,0,66.351,0,147.91s66.351,147.91,147.91,147.91s147.91-66.351,147.91-147.91
			S229.469,0,147.91,0z M147.91,284.942c-75.565,0-137.032-61.472-137.032-137.032S72.345,10.878,147.91,10.878
			S284.942,72.35,284.942,147.91S223.469,284.942,147.91,284.942z"/>
		<path d="M93.873,95.983l2.997-2.997c2.127-2.127,1.556-4.667-1.273-5.684l-7.125-2.556
			c-2.823-1.017-4.226,0.43-3.122,3.22l2.681,6.799C89.135,97.56,91.746,98.104,93.873,95.983z"/>
		<path d="M200.609,95.983c2.127,2.127,4.737,1.583,5.842-1.213l2.687-6.799
			c1.104-2.796-0.299-4.237-3.122-3.22l-7.131,2.556c-2.823,1.017-3.399,3.557-1.273,5.684L200.609,95.983z"/>
		<path d="M94.542,199.663c-2.127-2.127-4.737-1.577-5.842,1.213l-2.681,6.799
			c-1.104,2.796,0.299,4.237,3.122,3.22l7.12-2.556c2.828-1.012,3.399-3.557,1.273-5.684L94.542,199.663z"/>
		<path d="M207.114,200.876c-1.104-2.796-3.72-3.34-5.842-1.213l-2.991,2.991
			c-2.127,2.127-1.55,4.667,1.273,5.684l7.12,2.556c2.828,1.012,4.226-0.43,3.122-3.22L207.114,200.876z"/>
        </g>
    </symbol>
    <symbol id="usa-flag" viewBox="0 0 124.237 124.237">
        <g id="usa-flag">
            <path d="M18.891,10.163c0,24.193,0,48.385,0,72.578c34.557,11.924,66.804-11.925,101.357,0c0-24.193,0-48.385,0-72.578
			C85.693-1.761,53.448,22.089,18.891,10.163z M56.525,31.748c0.323-1.054,0.484-1.582,0.809-2.638
			c0.322,0.93,0.481,1.396,0.805,2.325c1.046-0.209,1.569-0.319,2.613-0.543c-0.846,0.796-1.269,1.192-2.112,1.979
			c0.322,0.928,0.481,1.39,0.805,2.317c-0.846-0.438-1.267-0.659-2.11-1.108c-0.848,0.778-1.269,1.164-2.112,1.93
			c0.323-1.051,0.482-1.577,0.805-2.63c-0.846-0.457-1.267-0.688-2.112-1.161C54.958,32.041,55.481,31.946,56.525,31.748z
			 M47.951,24.807c0.322-1.028,0.483-1.542,0.807-2.574c0.322,0.956,0.484,1.433,0.808,2.386c1.044-0.131,1.567-0.205,2.612-0.364
			c-0.847,0.743-1.268,1.11-2.114,1.835c0.324,0.951,0.485,1.426,0.808,2.375c-0.846-0.496-1.268-0.748-2.113-1.263
			c-0.846,0.712-1.267,1.063-2.113,1.754c0.323-1.023,0.484-1.536,0.807-2.562c-0.846-0.529-1.269-0.797-2.112-1.349
			C46.384,24.969,46.904,24.919,47.951,24.807z M47.951,40.83c0.322-1.028,0.483-1.543,0.807-2.574
			c0.322,0.956,0.484,1.432,0.808,2.385c1.044-0.131,1.567-0.204,2.612-0.364c-0.847,0.743-1.268,1.111-2.114,1.834
			c0.324,0.952,0.485,1.426,0.808,2.374c-0.846-0.496-1.268-0.748-2.113-1.263c-0.846,0.713-1.267,1.064-2.113,1.755
			c0.323-1.022,0.484-1.535,0.807-2.561c-0.846-0.528-1.269-0.797-2.112-1.348C46.384,40.991,46.904,40.942,47.951,40.83z
			 M40.407,33.479c0.322-0.994,0.485-1.491,0.81-2.489c0.322,0.988,0.484,1.481,0.807,2.467c1.044-0.028,1.567-0.053,2.612-0.12
			c-0.847,0.668-1.268,0.997-2.113,1.64c0.323,0.982,0.484,1.471,0.807,2.45c-0.846-0.575-1.269-0.868-2.112-1.469
			c-0.847,0.626-1.268,0.933-2.113,1.53c0.322-0.987,0.483-1.483,0.807-2.474c-0.846-0.62-1.27-0.936-2.115-1.586
			C38.842,33.472,39.362,33.48,40.407,33.479z M31.186,24.496c0.323-0.939,0.484-1.409,0.808-2.353
			c0.322,1.043,0.481,1.563,0.807,2.601c1.045,0.143,1.566,0.201,2.612,0.291c-0.846,0.541-1.27,0.802-2.113,1.309
			c0.322,1.034,0.483,1.551,0.808,2.581c-0.847-0.708-1.27-1.07-2.113-1.814c-0.847,0.484-1.268,0.717-2.111,1.163
			c0.322-0.929,0.482-1.396,0.805-2.33c-0.846-0.767-1.267-1.16-2.113-1.966C29.619,24.215,30.142,24.318,31.186,24.496z
			 M31.186,40.518c0.323-0.938,0.484-1.408,0.808-2.353c0.322,1.043,0.481,1.563,0.807,2.601c1.045,0.143,1.566,0.201,2.612,0.291
			c-0.846,0.542-1.27,0.805-2.113,1.312c0.322,1.034,0.483,1.549,0.808,2.578c-0.847-0.707-1.27-1.069-2.113-1.813
			c-0.847,0.484-1.268,0.718-2.111,1.164c0.322-0.929,0.482-1.396,0.805-2.331c-0.846-0.767-1.267-1.16-2.113-1.966
			C29.619,40.237,30.142,40.34,31.186,40.518z M114.914,75.268c-31.091-6.868-59.596,11.141-90.688,4.275c0-2.307,0-3.46,0-5.767
			c31.091,6.87,59.598-11.142,90.688-4.274C114.914,71.809,114.914,72.962,114.914,75.268z M114.914,64.169
			c-31.091-6.871-59.596,11.142-90.688,4.274c0-2.217,0-3.326,0-5.543c31.091,6.869,59.598-11.143,90.688-4.273
			C114.914,60.844,114.914,61.952,114.914,64.169z M114.914,53.292c-31.091-6.87-59.598,11.144-90.688,4.273
			c0-2.258,0-3.387,0-5.645c31.093,6.866,59.598-11.144,90.688-4.274C114.914,49.904,114.914,51.034,114.914,53.292z M114.914,42.31
			c-16.323-3.762-30.235-1.358-46.349,2.375c0-2.439,0-3.657,0-6.096c16.109-3.732,30.027-6.139,46.349-2.375
			C114.914,38.654,114.914,39.871,114.914,42.31z M114.914,30.879c-16.323-3.762-30.237-1.358-46.349,2.375c0-2.21,0-3.314,0-5.524
			c16.109-3.734,30.027-6.138,46.349-2.375C114.914,27.566,114.914,28.67,114.914,30.879z M114.914,20.02
			c-16.323-3.762-30.235-1.357-46.349,2.374c0-2.663,0-3.994,0-6.658c16.109-3.733,30.027-6.139,46.349-2.374
			C114.914,16.025,114.914,17.356,114.914,20.02z"/>
		<path d="M12.828,0H9.476C6.451,0,3.989,2.461,3.989,5.487c0,2.111,1.183,3.959,2.976,4.873v113.877h8.616V10.232
			c1.664-0.958,2.734-2.738,2.734-4.745C18.315,2.462,15.852,0,12.828,0z"/>
        </g>
    </symbol>
    <symbol id="security" viewBox="-41 1 511 511.99941">
        <g id="security">
            <path d="m215.207031 512c-77.472656 0-142.261719-45.4375-177.753906-124.660156-11.808594-26.339844-19.113281-56.820313-21.726563-90.582032l-15.175781-196.382812c-.339843-4.386719 1.078125-8.726562 3.949219-12.046875 2.871094-3.339844 6.941406-5.386719 11.332031-5.695313 59.585938-4.304687 116.488281-25.355468 164.550781-60.902343l25-18.484375c5.953126-4.386719 14.074219-4.339844 19.917969.210937l18.257813 14.113281c49.28125 38.097657 108.152344 60.582032 170.273437 65.015626 4.386719.304687 8.839844 2.386718 11.703125 5.710937 2.871094 3.335937 4.667969 7.691406 4.332032 12.082031l-15.179688 196.382813c-2.613281 33.757812-9.917969 64.242187-21.722656 90.578125-35.492188 79.222656-100.28125 124.660156-177.757813 124.660156zm-180.472656-398.011719 13.925781 180.222657c2.316406 29.96875 8.6875 56.757812 18.9375 79.613281 29.933594 66.820312 83.734375 105.144531 147.609375 105.144531 63.878907 0 117.675781-38.324219 147.613281-105.144531 10.25-22.855469 16.621094-49.644531 18.933594-79.613281l13.929688-180.207032c-63.210938-7.464844-122.25-31.578125-172.324219-70.304687l-8.371094-6.46875-14.957031 11.050781c-48.644531 35.984375-105.488281 58.53125-165.296875 65.707031zm0 0"/>
			<path d="m221.1875 333.195312c-23.5625 0-40.496094-15.804687-49.320312-36.347656-3.652344-8.507812-5.476563-17.6875-6.160157-26.921875l-4.601562-62.121093 57.472656-26.125 62.695313 26.125-4.601563 62.121093c-.683594 9.234375-2.507813 18.414063-6.164063 26.921875-8.820312 20.546875-25.753906 36.347656-49.320312 36.347656zm0 0"/>
			<path d="m221.191406 349.710938c-27.917968 0-52.03125-17.320313-64.5-46.335938-4.070312-9.5-6.582031-20.355469-7.457031-32.242188l-4.597656-62.09375c-.515625-6.90625 3.328125-13.40625 9.628906-16.257812l57.472656-26.128906c4.179688-1.886719 8.96875-1.984375 13.195313-.210938l62.691406 26.128906c6.566406 2.722657 10.644531 9.371094 10.113281 16.46875l-4.601562 62.109376c-.875 11.871093-3.382813 22.726562-7.453125 32.226562-12.46875 29.015625-36.582032 46.335938-64.492188 46.335938zm-42.765625-131.625 3.75 50.609374c.605469 8.242188 2.242188 15.53125 4.871094 21.644532 4.226563 9.839844 14.28125 26.339844 34.144531 26.339844 19.855469 0 29.910156-16.5 34.136719-26.339844 2.628906-6.113282 4.265625-13.402344 4.863281-21.628906l3.726563-50.242188-45.050781-18.773438zm0 0"/>
        </g>
    </symbol>
</svg>